<?xml version="1.0" encoding="UTF-8"?>

<svg xmlns="http://www.w3.org/2000/svg" width="1200" height="75" id="svg2" version="1.1">
<line stroke="grey" stroke-width="3" fill="None"  x1="0" x2="1200" y1="37.5" y2="37.5" />
<line stroke="grey" stroke-width="2" fill="None"  x1="404.0" x2="404.0" y1="37.5" y2="50.0" />
<text x="404.0" y="57.0" font-family="sans-serif" font-size="7" text-anchor="middle" fill="grey">resting</text>
<line stroke="grey" stroke-width="2" fill="None"  x1="504.0" x2="504.0" y1="37.5" y2="50.0" />
<text x="504.0" y="57.0" font-family="sans-serif" font-size="7" text-anchor="middle" fill="grey">scary movie</text>
<line stroke="grey" stroke-width="2" fill="None"  x1="600.0" x2="600.0" y1="37.5" y2="50.0" />
<text x="600.0" y="57.0" font-family="sans-serif" font-size="7" text-anchor="middle" fill="grey">attacked by monster</text>
<text x="0.0" y="22.0" font-family="sans-serif" font-size="7" text-anchor="start" fill="grey">0‱</text>
<line stroke="grey" stroke-width="2" fill="None"  x1="0.0" x2="0.0" y1="37.5" y2="25.0" />
<line stroke="grey" stroke-width="0.5" fill="None"  x1="8.0" x2="8.0" y1="37.5" y2="25.0" />
<line stroke="grey" stroke-width="0.5" fill="None"  x1="16.0" x2="16.0" y1="37.5" y2="25.0" />
<line stroke="grey" stroke-width="0.5" fill="None"  x1="24.0" x2="24.0" y1="37.5" y2="25.0" />
<line stroke="grey" stroke-width="0.5" fill="None"  x1="32.0" x2="32.0" y1="37.5" y2="25.0" />
<line stroke="grey" stroke-width="0.5" fill="None"  x1="40.0" x2="40.0" y1="37.5" y2="25.0" />
<line stroke="grey" stroke-width="0.5" fill="None"  x1="48.0" x2="48.0" y1="37.5" y2="25.0" />
<line stroke="grey" stroke-width="0.5" fill="None"  x1="56.00000000000001" x2="56.00000000000001" y1="37.5" y2="25.0" />
<line stroke="grey" stroke-width="0.5" fill="None"  x1="64.0" x2="64.0" y1="37.5" y2="25.0" />
<line stroke="grey" stroke-width="0.5" fill="None"  x1="72.0" x2="72.0" y1="37.5" y2="25.0" />
<text x="79.99999999999999" y="22.0" font-family="sans-serif" font-size="7" text-anchor="middle" fill="grey">0.1‱</text>
<line stroke="grey" stroke-width="2" fill="None"  x1="79.99999999999999" x2="79.99999999999999" y1="37.5" y2="25.0" />
<line stroke="grey" stroke-width="0.5" fill="None"  x1="87.99999999999999" x2="87.99999999999999" y1="37.5" y2="25.0" />
<line stroke="grey" stroke-width="0.5" fill="None"  x1="95.99999999999999" x2="95.99999999999999" y1="37.5" y2="25.0" />
<line stroke="grey" stroke-width="0.5" fill="None"  x1="103.99999999999999" x2="103.99999999999999" y1="37.5" y2="25.0" />
<line stroke="grey" stroke-width="0.5" fill="None"  x1="111.99999999999999" x2="111.99999999999999" y1="37.5" y2="25.0" />
<line stroke="grey" stroke-width="0.5" fill="None"  x1="120.0" x2="120.0" y1="37.5" y2="25.0" />
<line stroke="grey" stroke-width="0.5" fill="None"  x1="128.0" x2="128.0" y1="37.5" y2="25.0" />
<line stroke="grey" stroke-width="0.5" fill="None"  x1="136.00000000000003" x2="136.00000000000003" y1="37.5" y2="25.0" />
<line stroke="grey" stroke-width="0.5" fill="None"  x1="144.00000000000003" x2="144.00000000000003" y1="37.5" y2="25.0" />
<line stroke="grey" stroke-width="0.5" fill="None"  x1="152.00000000000003" x2="152.00000000000003" y1="37.5" y2="25.0" />
<text x="160.00000000000003" y="22.0" font-family="sans-serif" font-size="7" text-anchor="middle" fill="grey">0.2‱</text>
<line stroke="grey" stroke-width="2" fill="None"  x1="160.00000000000003" x2="160.00000000000003" y1="37.5" y2="25.0" />
<line stroke="grey" stroke-width="0.5" fill="None"  x1="168.00000000000003" x2="168.00000000000003" y1="37.5" y2="25.0" />
<line stroke="grey" stroke-width="0.5" fill="None"  x1="176.00000000000003" x2="176.00000000000003" y1="37.5" y2="25.0" />
<line stroke="grey" stroke-width="0.5" fill="None"  x1="184.00000000000003" x2="184.00000000000003" y1="37.5" y2="25.0" />
<line stroke="grey" stroke-width="0.5" fill="None"  x1="192.00000000000009" x2="192.00000000000009" y1="37.5" y2="25.0" />
<line stroke="grey" stroke-width="0.5" fill="None"  x1="200.00000000000003" x2="200.00000000000003" y1="37.5" y2="25.0" />
<line stroke="grey" stroke-width="0.5" fill="None"  x1="208.00000000000003" x2="208.00000000000003" y1="37.5" y2="25.0" />
<line stroke="grey" stroke-width="0.5" fill="None"  x1="216.00000000000009" x2="216.00000000000009" y1="37.5" y2="25.0" />
<line stroke="grey" stroke-width="0.5" fill="None"  x1="224.00000000000009" x2="224.00000000000009" y1="37.5" y2="25.0" />
<line stroke="grey" stroke-width="0.5" fill="None"  x1="232.00000000000009" x2="232.00000000000009" y1="37.5" y2="25.0" />
<text x="240.00000000000009" y="22.0" font-family="sans-serif" font-size="7" text-anchor="middle" fill="grey">0.3‱</text>
<line stroke="grey" stroke-width="2" fill="None"  x1="240.00000000000009" x2="240.00000000000009" y1="37.5" y2="25.0" />
<line stroke="grey" stroke-width="0.5" fill="None"  x1="248.00000000000009" x2="248.00000000000009" y1="37.5" y2="25.0" />
<line stroke="grey" stroke-width="0.5" fill="None"  x1="256.00000000000006" x2="256.00000000000006" y1="37.5" y2="25.0" />
<line stroke="grey" stroke-width="0.5" fill="None"  x1="264.0000000000001" x2="264.0000000000001" y1="37.5" y2="25.0" />
<line stroke="grey" stroke-width="0.5" fill="None"  x1="272.0000000000001" x2="272.0000000000001" y1="37.5" y2="25.0" />
<line stroke="grey" stroke-width="0.5" fill="None"  x1="280.0000000000001" x2="280.0000000000001" y1="37.5" y2="25.0" />
<line stroke="grey" stroke-width="0.5" fill="None"  x1="288.0000000000001" x2="288.0000000000001" y1="37.5" y2="25.0" />
<line stroke="grey" stroke-width="0.5" fill="None"  x1="296.0000000000001" x2="296.0000000000001" y1="37.5" y2="25.0" />
<line stroke="grey" stroke-width="0.5" fill="None"  x1="304.00000000000017" x2="304.00000000000017" y1="37.5" y2="25.0" />
<line stroke="grey" stroke-width="0.5" fill="None"  x1="312.00000000000017" x2="312.00000000000017" y1="37.5" y2="25.0" />
<text x="320.00000000000017" y="22.0" font-family="sans-serif" font-size="7" text-anchor="middle" fill="grey">0.4‱</text>
<line stroke="grey" stroke-width="2" fill="None"  x1="320.00000000000017" x2="320.00000000000017" y1="37.5" y2="25.0" />
<line stroke="grey" stroke-width="0.5" fill="None"  x1="328.00000000000017" x2="328.00000000000017" y1="37.5" y2="25.0" />
<line stroke="grey" stroke-width="0.5" fill="None"  x1="336.00000000000017" x2="336.00000000000017" y1="37.5" y2="25.0" />
<line stroke="grey" stroke-width="0.5" fill="None"  x1="344.00000000000017" x2="344.00000000000017" y1="37.5" y2="25.0" />
<line stroke="grey" stroke-width="0.5" fill="None"  x1="352.00000000000017" x2="352.00000000000017" y1="37.5" y2="25.0" />
<line stroke="grey" stroke-width="0.5" fill="None"  x1="360.00000000000017" x2="360.00000000000017" y1="37.5" y2="25.0" />
<line stroke="grey" stroke-width="0.5" fill="None"  x1="368.0000000000002" x2="368.0000000000002" y1="37.5" y2="25.0" />
<line stroke="grey" stroke-width="0.5" fill="None"  x1="376.0000000000002" x2="376.0000000000002" y1="37.5" y2="25.0" />
<line stroke="grey" stroke-width="0.5" fill="None"  x1="384.0000000000002" x2="384.0000000000002" y1="37.5" y2="25.0" />
<line stroke="grey" stroke-width="0.5" fill="None"  x1="392.0000000000002" x2="392.0000000000002" y1="37.5" y2="25.0" />
<text x="400.00000000000017" y="22.0" font-family="sans-serif" font-size="7" text-anchor="middle" fill="grey">0.5‱</text>
<line stroke="grey" stroke-width="2" fill="None"  x1="400.00000000000017" x2="400.00000000000017" y1="37.5" y2="25.0" />
<line stroke="grey" stroke-width="0.5" fill="None"  x1="408.00000000000017" x2="408.00000000000017" y1="37.5" y2="25.0" />
<line stroke="grey" stroke-width="0.5" fill="None"  x1="416.0000000000002" x2="416.0000000000002" y1="37.5" y2="25.0" />
<line stroke="grey" stroke-width="0.5" fill="None"  x1="424.0000000000002" x2="424.0000000000002" y1="37.5" y2="25.0" />
<line stroke="grey" stroke-width="0.5" fill="None"  x1="432.0000000000002" x2="432.0000000000002" y1="37.5" y2="25.0" />
<line stroke="grey" stroke-width="0.5" fill="None"  x1="440.0000000000002" x2="440.0000000000002" y1="37.5" y2="25.0" />
<line stroke="grey" stroke-width="0.5" fill="None"  x1="448.0000000000002" x2="448.0000000000002" y1="37.5" y2="25.0" />
<line stroke="grey" stroke-width="0.5" fill="None"  x1="456.0000000000002" x2="456.0000000000002" y1="37.5" y2="25.0" />
<line stroke="grey" stroke-width="0.5" fill="None"  x1="464.0000000000002" x2="464.0000000000002" y1="37.5" y2="25.0" />
<line stroke="grey" stroke-width="0.5" fill="None"  x1="472.0000000000002" x2="472.0000000000002" y1="37.5" y2="25.0" />
<text x="480.0000000000002" y="22.0" font-family="sans-serif" font-size="7" text-anchor="middle" fill="grey">0.6‱</text>
<line stroke="grey" stroke-width="2" fill="None"  x1="480.0000000000002" x2="480.0000000000002" y1="37.5" y2="25.0" />
<line stroke="grey" stroke-width="0.5" fill="None"  x1="488.0000000000002" x2="488.0000000000002" y1="37.5" y2="25.0" />
<line stroke="grey" stroke-width="0.5" fill="None"  x1="496.0000000000002" x2="496.0000000000002" y1="37.5" y2="25.0" />
<line stroke="grey" stroke-width="0.5" fill="None"  x1="504.0000000000003" x2="504.0000000000003" y1="37.5" y2="25.0" />
<line stroke="grey" stroke-width="0.5" fill="None"  x1="512.0000000000003" x2="512.0000000000003" y1="37.5" y2="25.0" />
<line stroke="grey" stroke-width="0.5" fill="None"  x1="520.0000000000003" x2="520.0000000000003" y1="37.5" y2="25.0" />
<line stroke="grey" stroke-width="0.5" fill="None"  x1="528.0000000000003" x2="528.0000000000003" y1="37.5" y2="25.0" />
<line stroke="grey" stroke-width="0.5" fill="None"  x1="536.0000000000003" x2="536.0000000000003" y1="37.5" y2="25.0" />
<line stroke="grey" stroke-width="0.5" fill="None"  x1="544.0000000000003" x2="544.0000000000003" y1="37.5" y2="25.0" />
<line stroke="grey" stroke-width="0.5" fill="None"  x1="552.0000000000003" x2="552.0000000000003" y1="37.5" y2="25.0" />
<text x="560.0000000000003" y="22.0" font-family="sans-serif" font-size="7" text-anchor="middle" fill="grey">0.7‱</text>
<line stroke="grey" stroke-width="2" fill="None"  x1="560.0000000000003" x2="560.0000000000003" y1="37.5" y2="25.0" />
<line stroke="grey" stroke-width="0.5" fill="None"  x1="568.0000000000003" x2="568.0000000000003" y1="37.5" y2="25.0" />
<line stroke="grey" stroke-width="0.5" fill="None"  x1="576.0000000000003" x2="576.0000000000003" y1="37.5" y2="25.0" />
<line stroke="grey" stroke-width="0.5" fill="None"  x1="584.0000000000003" x2="584.0000000000003" y1="37.5" y2="25.0" />
<line stroke="grey" stroke-width="0.5" fill="None"  x1="592.0000000000003" x2="592.0000000000003" y1="37.5" y2="25.0" />
<line stroke="grey" stroke-width="0.5" fill="None"  x1="600.0000000000003" x2="600.0000000000003" y1="37.5" y2="25.0" />
<line stroke="grey" stroke-width="0.5" fill="None"  x1="608.0000000000003" x2="608.0000000000003" y1="37.5" y2="25.0" />
<line stroke="grey" stroke-width="0.5" fill="None"  x1="616.0000000000003" x2="616.0000000000003" y1="37.5" y2="25.0" />
<line stroke="grey" stroke-width="0.5" fill="None"  x1="624.0000000000003" x2="624.0000000000003" y1="37.5" y2="25.0" />
<line stroke="grey" stroke-width="0.5" fill="None"  x1="632.0000000000003" x2="632.0000000000003" y1="37.5" y2="25.0" />
<text x="640.0000000000003" y="22.0" font-family="sans-serif" font-size="7" text-anchor="middle" fill="grey">0.8‱</text>
<line stroke="grey" stroke-width="2" fill="None"  x1="640.0000000000003" x2="640.0000000000003" y1="37.5" y2="25.0" />
<line stroke="grey" stroke-width="0.5" fill="None"  x1="648.0000000000003" x2="648.0000000000003" y1="37.5" y2="25.0" />
<line stroke="grey" stroke-width="0.5" fill="None"  x1="656.0000000000003" x2="656.0000000000003" y1="37.5" y2="25.0" />
<line stroke="grey" stroke-width="0.5" fill="None"  x1="664.0000000000003" x2="664.0000000000003" y1="37.5" y2="25.0" />
<line stroke="grey" stroke-width="0.5" fill="None"  x1="672.0000000000005" x2="672.0000000000005" y1="37.5" y2="25.0" />
<line stroke="grey" stroke-width="0.5" fill="None"  x1="680.0000000000005" x2="680.0000000000005" y1="37.5" y2="25.0" />
<line stroke="grey" stroke-width="0.5" fill="None"  x1="688.0000000000005" x2="688.0000000000005" y1="37.5" y2="25.0" />
<line stroke="grey" stroke-width="0.5" fill="None"  x1="696.0000000000005" x2="696.0000000000005" y1="37.5" y2="25.0" />
<line stroke="grey" stroke-width="0.5" fill="None"  x1="704.0000000000005" x2="704.0000000000005" y1="37.5" y2="25.0" />
<line stroke="grey" stroke-width="0.5" fill="None"  x1="712.0000000000005" x2="712.0000000000005" y1="37.5" y2="25.0" />
<text x="720.0000000000005" y="22.0" font-family="sans-serif" font-size="7" text-anchor="middle" fill="grey">0.9‱</text>
<line stroke="grey" stroke-width="2" fill="None"  x1="720.0000000000005" x2="720.0000000000005" y1="37.5" y2="25.0" />
<line stroke="grey" stroke-width="0.5" fill="None"  x1="728.0000000000005" x2="728.0000000000005" y1="37.5" y2="25.0" />
<line stroke="grey" stroke-width="0.5" fill="None"  x1="736.0000000000005" x2="736.0000000000005" y1="37.5" y2="25.0" />
<line stroke="grey" stroke-width="0.5" fill="None"  x1="744.0000000000005" x2="744.0000000000005" y1="37.5" y2="25.0" />
<line stroke="grey" stroke-width="0.5" fill="None"  x1="752.0000000000005" x2="752.0000000000005" y1="37.5" y2="25.0" />
<line stroke="grey" stroke-width="0.5" fill="None"  x1="760.0000000000005" x2="760.0000000000005" y1="37.5" y2="25.0" />
<line stroke="grey" stroke-width="0.5" fill="None"  x1="768.0000000000005" x2="768.0000000000005" y1="37.5" y2="25.0" />
<line stroke="grey" stroke-width="0.5" fill="None"  x1="776.0000000000005" x2="776.0000000000005" y1="37.5" y2="25.0" />
<line stroke="grey" stroke-width="0.5" fill="None"  x1="784.0000000000005" x2="784.0000000000005" y1="37.5" y2="25.0" />
<line stroke="grey" stroke-width="0.5" fill="None"  x1="792.0000000000005" x2="792.0000000000005" y1="37.5" y2="25.0" />
<text x="800.0000000000006" y="22.0" font-family="sans-serif" font-size="7" text-anchor="middle" fill="grey">1‱</text>
<line stroke="grey" stroke-width="2" fill="None"  x1="800.0000000000006" x2="800.0000000000006" y1="37.5" y2="25.0" />
<line stroke="grey" stroke-width="0.5" fill="None"  x1="808.0000000000006" x2="808.0000000000006" y1="37.5" y2="25.0" />
<line stroke="grey" stroke-width="0.5" fill="None"  x1="816.0000000000006" x2="816.0000000000006" y1="37.5" y2="25.0" />
<line stroke="grey" stroke-width="0.5" fill="None"  x1="824.0000000000006" x2="824.0000000000006" y1="37.5" y2="25.0" />
<line stroke="grey" stroke-width="0.5" fill="None"  x1="832.0000000000006" x2="832.0000000000006" y1="37.5" y2="25.0" />
<line stroke="grey" stroke-width="0.5" fill="None"  x1="840.0000000000006" x2="840.0000000000006" y1="37.5" y2="25.0" />
<line stroke="grey" stroke-width="0.5" fill="None"  x1="848.0000000000006" x2="848.0000000000006" y1="37.5" y2="25.0" />
<line stroke="grey" stroke-width="0.5" fill="None"  x1="856.0000000000006" x2="856.0000000000006" y1="37.5" y2="25.0" />
<line stroke="grey" stroke-width="0.5" fill="None"  x1="864.0000000000006" x2="864.0000000000006" y1="37.5" y2="25.0" />
<line stroke="grey" stroke-width="0.5" fill="None"  x1="872.0000000000006" x2="872.0000000000006" y1="37.5" y2="25.0" />
<text x="880.0000000000006" y="22.0" font-family="sans-serif" font-size="7" text-anchor="middle" fill="grey">1.1‱</text>
<line stroke="grey" stroke-width="2" fill="None"  x1="880.0000000000006" x2="880.0000000000006" y1="37.5" y2="25.0" />
<line stroke="grey" stroke-width="0.5" fill="None"  x1="888.0000000000006" x2="888.0000000000006" y1="37.5" y2="25.0" />
<line stroke="grey" stroke-width="0.5" fill="None"  x1="896.0000000000006" x2="896.0000000000006" y1="37.5" y2="25.0" />
<line stroke="grey" stroke-width="0.5" fill="None"  x1="904.0000000000006" x2="904.0000000000006" y1="37.5" y2="25.0" />
<line stroke="grey" stroke-width="0.5" fill="None"  x1="912.0000000000006" x2="912.0000000000006" y1="37.5" y2="25.0" />
<line stroke="grey" stroke-width="0.5" fill="None"  x1="920.0000000000006" x2="920.0000000000006" y1="37.5" y2="25.0" />
<line stroke="grey" stroke-width="0.5" fill="None"  x1="928.0000000000006" x2="928.0000000000006" y1="37.5" y2="25.0" />
<line stroke="grey" stroke-width="0.5" fill="None"  x1="936.0000000000006" x2="936.0000000000006" y1="37.5" y2="25.0" />
<line stroke="grey" stroke-width="0.5" fill="None"  x1="944.0000000000006" x2="944.0000000000006" y1="37.5" y2="25.0" />
<line stroke="grey" stroke-width="0.5" fill="None"  x1="952.0000000000006" x2="952.0000000000006" y1="37.5" y2="25.0" />
<text x="960.0000000000006" y="22.0" font-family="sans-serif" font-size="7" text-anchor="middle" fill="grey">1.2‱</text>
<line stroke="grey" stroke-width="2" fill="None"  x1="960.0000000000006" x2="960.0000000000006" y1="37.5" y2="25.0" />
<line stroke="grey" stroke-width="0.5" fill="None"  x1="968.0000000000006" x2="968.0000000000006" y1="37.5" y2="25.0" />
<line stroke="grey" stroke-width="0.5" fill="None"  x1="976.0000000000008" x2="976.0000000000008" y1="37.5" y2="25.0" />
<line stroke="grey" stroke-width="0.5" fill="None"  x1="984.0000000000008" x2="984.0000000000008" y1="37.5" y2="25.0" />
<line stroke="grey" stroke-width="0.5" fill="None"  x1="992.0000000000008" x2="992.0000000000008" y1="37.5" y2="25.0" />
<line stroke="grey" stroke-width="0.5" fill="None"  x1="1000.0000000000008" x2="1000.0000000000008" y1="37.5" y2="25.0" />
<line stroke="grey" stroke-width="0.5" fill="None"  x1="1008.0000000000008" x2="1008.0000000000008" y1="37.5" y2="25.0" />
<line stroke="grey" stroke-width="0.5" fill="None"  x1="1016.0000000000008" x2="1016.0000000000008" y1="37.5" y2="25.0" />
<line stroke="grey" stroke-width="0.5" fill="None"  x1="1024.0000000000007" x2="1024.0000000000007" y1="37.5" y2="25.0" />
<line stroke="grey" stroke-width="0.5" fill="None"  x1="1032.0000000000007" x2="1032.0000000000007" y1="37.5" y2="25.0" />
<text x="1040.0000000000007" y="22.0" font-family="sans-serif" font-size="7" text-anchor="middle" fill="grey">1.3‱</text>
<line stroke="grey" stroke-width="2" fill="None"  x1="1040.0000000000007" x2="1040.0000000000007" y1="37.5" y2="25.0" />
<line stroke="grey" stroke-width="0.5" fill="None"  x1="1048.0000000000007" x2="1048.0000000000007" y1="37.5" y2="25.0" />
<line stroke="grey" stroke-width="0.5" fill="None"  x1="1056.0000000000007" x2="1056.0000000000007" y1="37.5" y2="25.0" />
<line stroke="grey" stroke-width="0.5" fill="None"  x1="1064.0000000000007" x2="1064.0000000000007" y1="37.5" y2="25.0" />
<line stroke="grey" stroke-width="0.5" fill="None"  x1="1072.0000000000007" x2="1072.0000000000007" y1="37.5" y2="25.0" />
<line stroke="grey" stroke-width="0.5" fill="None"  x1="1080.0000000000007" x2="1080.0000000000007" y1="37.5" y2="25.0" />
<line stroke="grey" stroke-width="0.5" fill="None"  x1="1088.0000000000007" x2="1088.0000000000007" y1="37.5" y2="25.0" />
<line stroke="grey" stroke-width="0.5" fill="None"  x1="1096.0000000000007" x2="1096.0000000000007" y1="37.5" y2="25.0" />
<line stroke="grey" stroke-width="0.5" fill="None"  x1="1104.0000000000007" x2="1104.0000000000007" y1="37.5" y2="25.0" />
<line stroke="grey" stroke-width="0.5" fill="None"  x1="1112.0000000000007" x2="1112.0000000000007" y1="37.5" y2="25.0" />
<text x="1120.0000000000007" y="22.0" font-family="sans-serif" font-size="7" text-anchor="middle" fill="grey">1.4‱</text>
<line stroke="grey" stroke-width="2" fill="None"  x1="1120.0000000000007" x2="1120.0000000000007" y1="37.5" y2="25.0" />
<line stroke="grey" stroke-width="0.5" fill="None"  x1="1128.0000000000007" x2="1128.0000000000007" y1="37.5" y2="25.0" />
<line stroke="grey" stroke-width="0.5" fill="None"  x1="1136.0000000000007" x2="1136.0000000000007" y1="37.5" y2="25.0" />
<line stroke="grey" stroke-width="0.5" fill="None"  x1="1144.000000000001" x2="1144.000000000001" y1="37.5" y2="25.0" />
<line stroke="grey" stroke-width="0.5" fill="None"  x1="1152.000000000001" x2="1152.000000000001" y1="37.5" y2="25.0" />
<line stroke="grey" stroke-width="0.5" fill="None"  x1="1160.000000000001" x2="1160.000000000001" y1="37.5" y2="25.0" />
<line stroke="grey" stroke-width="0.5" fill="None"  x1="1168.000000000001" x2="1168.000000000001" y1="37.5" y2="25.0" />
<line stroke="grey" stroke-width="0.5" fill="None"  x1="1176.000000000001" x2="1176.000000000001" y1="37.5" y2="25.0" />
<line stroke="grey" stroke-width="0.5" fill="None"  x1="1184.000000000001" x2="1184.000000000001" y1="37.5" y2="25.0" />
<line stroke="grey" stroke-width="0.5" fill="None"  x1="1192.000000000001" x2="1192.000000000001" y1="37.5" y2="25.0" />
</svg>