<?xml version="1.0" encoding="UTF-8"?>

<svg xmlns="http://www.w3.org/2000/svg" width="600" height="75" id="svg2" version="1.1">
<line stroke="grey" stroke-width="3" fill="None"  x1="0" x2="600" y1="37.5" y2="37.5" />
<line stroke="grey" stroke-width="2" fill="None"  x1="52.666666666666664" x2="52.666666666666664" y1="37.5" y2="50.0" />
<text x="52.666666666666664" y="57.0" font-family="sans-serif" font-size="7" text-anchor="middle" fill="grey">Low Blood Pressure</text>
<line stroke="grey" stroke-width="2" fill="None"  x1="79.33333333333333" x2="79.33333333333333" y1="37.5" y2="50.0" />
<text x="79.33333333333333" y="69.5" font-family="sans-serif" font-size="7" text-anchor="middle" fill="grey">Average</text>
<line stroke="grey" stroke-width="2" fill="None"  x1="123.33333333333333" x2="123.33333333333333" y1="37.5" y2="50.0" />
<text x="123.33333333333333" y="57.0" font-family="sans-serif" font-size="7" text-anchor="middle" fill="grey">High Blood Pressure</text>
<line stroke="grey" stroke-width="2" fill="None"  x1="160.0" x2="160.0" y1="37.5" y2="50.0" />
<text x="160.0" y="69.5" font-family="sans-serif" font-size="7" text-anchor="middle" fill="grey">Critical Blood Pressure</text>
<text x="0.0" y="22.0" font-family="sans-serif" font-size="7" text-anchor="start" fill="grey">0 kPa</text>
<line stroke="grey" stroke-width="2" fill="None"  x1="0.0" x2="0.0" y1="37.5" y2="25.0" />
<line stroke="grey" stroke-width="0.5" fill="None"  x1="6.666666666666667" x2="6.666666666666667" y1="37.5" y2="25.0" />
<line stroke="grey" stroke-width="0.5" fill="None"  x1="13.333333333333334" x2="13.333333333333334" y1="37.5" y2="25.0" />
<line stroke="grey" stroke-width="0.5" fill="None"  x1="20.0" x2="20.0" y1="37.5" y2="25.0" />
<line stroke="grey" stroke-width="0.5" fill="None"  x1="26.666666666666668" x2="26.666666666666668" y1="37.5" y2="25.0" />
<line stroke="grey" stroke-width="0.5" fill="None"  x1="33.333333333333336" x2="33.333333333333336" y1="37.5" y2="25.0" />
<line stroke="grey" stroke-width="0.5" fill="None"  x1="40.0" x2="40.0" y1="37.5" y2="25.0" />
<line stroke="grey" stroke-width="0.5" fill="None"  x1="46.666666666666664" x2="46.666666666666664" y1="37.5" y2="25.0" />
<line stroke="grey" stroke-width="0.5" fill="None"  x1="53.333333333333336" x2="53.333333333333336" y1="37.5" y2="25.0" />
<line stroke="grey" stroke-width="0.5" fill="None"  x1="60.0" x2="60.0" y1="37.5" y2="25.0" />
<text x="66.66666666666667" y="22.0" font-family="sans-serif" font-size="7" text-anchor="middle" fill="grey">10 kPa</text>
<line stroke="grey" stroke-width="2" fill="None"  x1="66.66666666666667" x2="66.66666666666667" y1="37.5" y2="25.0" />
<line stroke="grey" stroke-width="0.5" fill="None"  x1="73.33333333333333" x2="73.33333333333333" y1="37.5" y2="25.0" />
<line stroke="grey" stroke-width="0.5" fill="None"  x1="80.0" x2="80.0" y1="37.5" y2="25.0" />
<line stroke="grey" stroke-width="0.5" fill="None"  x1="86.66666666666667" x2="86.66666666666667" y1="37.5" y2="25.0" />
<line stroke="grey" stroke-width="0.5" fill="None"  x1="93.33333333333333" x2="93.33333333333333" y1="37.5" y2="25.0" />
<line stroke="grey" stroke-width="0.5" fill="None"  x1="100.0" x2="100.0" y1="37.5" y2="25.0" />
<line stroke="grey" stroke-width="0.5" fill="None"  x1="106.66666666666667" x2="106.66666666666667" y1="37.5" y2="25.0" />
<line stroke="grey" stroke-width="0.5" fill="None"  x1="113.33333333333333" x2="113.33333333333333" y1="37.5" y2="25.0" />
<line stroke="grey" stroke-width="0.5" fill="None"  x1="120.0" x2="120.0" y1="37.5" y2="25.0" />
<line stroke="grey" stroke-width="0.5" fill="None"  x1="126.66666666666667" x2="126.66666666666667" y1="37.5" y2="25.0" />
<text x="133.33333333333334" y="22.0" font-family="sans-serif" font-size="7" text-anchor="middle" fill="grey">20 kPa</text>
<line stroke="grey" stroke-width="2" fill="None"  x1="133.33333333333334" x2="133.33333333333334" y1="37.5" y2="25.0" />
<line stroke="grey" stroke-width="0.5" fill="None"  x1="140.0" x2="140.0" y1="37.5" y2="25.0" />
<line stroke="grey" stroke-width="0.5" fill="None"  x1="146.66666666666666" x2="146.66666666666666" y1="37.5" y2="25.0" />
<line stroke="grey" stroke-width="0.5" fill="None"  x1="153.33333333333334" x2="153.33333333333334" y1="37.5" y2="25.0" />
<line stroke="grey" stroke-width="0.5" fill="None"  x1="160.0" x2="160.0" y1="37.5" y2="25.0" />
<line stroke="grey" stroke-width="0.5" fill="None"  x1="166.66666666666666" x2="166.66666666666666" y1="37.5" y2="25.0" />
<line stroke="grey" stroke-width="0.5" fill="None"  x1="173.33333333333334" x2="173.33333333333334" y1="37.5" y2="25.0" />
<line stroke="grey" stroke-width="0.5" fill="None"  x1="180.0" x2="180.0" y1="37.5" y2="25.0" />
<line stroke="grey" stroke-width="0.5" fill="None"  x1="186.66666666666666" x2="186.66666666666666" y1="37.5" y2="25.0" />
<line stroke="grey" stroke-width="0.5" fill="None"  x1="193.33333333333334" x2="193.33333333333334" y1="37.5" y2="25.0" />
<text x="200.0" y="22.0" font-family="sans-serif" font-size="7" text-anchor="middle" fill="grey">30 kPa</text>
<line stroke="grey" stroke-width="2" fill="None"  x1="200.0" x2="200.0" y1="37.5" y2="25.0" />
<line stroke="grey" stroke-width="0.5" fill="None"  x1="206.66666666666666" x2="206.66666666666666" y1="37.5" y2="25.0" />
<line stroke="grey" stroke-width="0.5" fill="None"  x1="213.33333333333334" x2="213.33333333333334" y1="37.5" y2="25.0" />
<line stroke="grey" stroke-width="0.5" fill="None"  x1="220.0" x2="220.0" y1="37.5" y2="25.0" />
<line stroke="grey" stroke-width="0.5" fill="None"  x1="226.66666666666666" x2="226.66666666666666" y1="37.5" y2="25.0" />
<line stroke="grey" stroke-width="0.5" fill="None"  x1="233.33333333333334" x2="233.33333333333334" y1="37.5" y2="25.0" />
<line stroke="grey" stroke-width="0.5" fill="None"  x1="240.0" x2="240.0" y1="37.5" y2="25.0" />
<line stroke="grey" stroke-width="0.5" fill="None"  x1="246.66666666666666" x2="246.66666666666666" y1="37.5" y2="25.0" />
<line stroke="grey" stroke-width="0.5" fill="None"  x1="253.33333333333334" x2="253.33333333333334" y1="37.5" y2="25.0" />
<line stroke="grey" stroke-width="0.5" fill="None"  x1="260.0" x2="260.0" y1="37.5" y2="25.0" />
<text x="266.6666666666667" y="22.0" font-family="sans-serif" font-size="7" text-anchor="middle" fill="grey">40 kPa</text>
<line stroke="grey" stroke-width="2" fill="None"  x1="266.6666666666667" x2="266.6666666666667" y1="37.5" y2="25.0" />
<line stroke="grey" stroke-width="0.5" fill="None"  x1="273.3333333333333" x2="273.3333333333333" y1="37.5" y2="25.0" />
<line stroke="grey" stroke-width="0.5" fill="None"  x1="280.0" x2="280.0" y1="37.5" y2="25.0" />
<line stroke="grey" stroke-width="0.5" fill="None"  x1="286.6666666666667" x2="286.6666666666667" y1="37.5" y2="25.0" />
<line stroke="grey" stroke-width="0.5" fill="None"  x1="293.3333333333333" x2="293.3333333333333" y1="37.5" y2="25.0" />
<line stroke="grey" stroke-width="0.5" fill="None"  x1="300.0" x2="300.0" y1="37.5" y2="25.0" />
<line stroke="grey" stroke-width="0.5" fill="None"  x1="306.6666666666667" x2="306.6666666666667" y1="37.5" y2="25.0" />
<line stroke="grey" stroke-width="0.5" fill="None"  x1="313.3333333333333" x2="313.3333333333333" y1="37.5" y2="25.0" />
<line stroke="grey" stroke-width="0.5" fill="None"  x1="320.0" x2="320.0" y1="37.5" y2="25.0" />
<line stroke="grey" stroke-width="0.5" fill="None"  x1="326.6666666666667" x2="326.6666666666667" y1="37.5" y2="25.0" />
<text x="333.3333333333333" y="22.0" font-family="sans-serif" font-size="7" text-anchor="middle" fill="grey">50 kPa</text>
<line stroke="grey" stroke-width="2" fill="None"  x1="333.3333333333333" x2="333.3333333333333" y1="37.5" y2="25.0" />
<line stroke="grey" stroke-width="0.5" fill="None"  x1="340.0" x2="340.0" y1="37.5" y2="25.0" />
<line stroke="grey" stroke-width="0.5" fill="None"  x1="346.6666666666667" x2="346.6666666666667" y1="37.5" y2="25.0" />
<line stroke="grey" stroke-width="0.5" fill="None"  x1="353.3333333333333" x2="353.3333333333333" y1="37.5" y2="25.0" />
<line stroke="grey" stroke-width="0.5" fill="None"  x1="360.0" x2="360.0" y1="37.5" y2="25.0" />
<line stroke="grey" stroke-width="0.5" fill="None"  x1="366.6666666666667" x2="366.6666666666667" y1="37.5" y2="25.0" />
<line stroke="grey" stroke-width="0.5" fill="None"  x1="373.3333333333333" x2="373.3333333333333" y1="37.5" y2="25.0" />
<line stroke="grey" stroke-width="0.5" fill="None"  x1="380.0" x2="380.0" y1="37.5" y2="25.0" />
<line stroke="grey" stroke-width="0.5" fill="None"  x1="386.6666666666667" x2="386.6666666666667" y1="37.5" y2="25.0" />
<line stroke="grey" stroke-width="0.5" fill="None"  x1="393.3333333333333" x2="393.3333333333333" y1="37.5" y2="25.0" />
<text x="400.0" y="22.0" font-family="sans-serif" font-size="7" text-anchor="middle" fill="grey">60 kPa</text>
<line stroke="grey" stroke-width="2" fill="None"  x1="400.0" x2="400.0" y1="37.5" y2="25.0" />
<line stroke="grey" stroke-width="0.5" fill="None"  x1="406.6666666666667" x2="406.6666666666667" y1="37.5" y2="25.0" />
<line stroke="grey" stroke-width="0.5" fill="None"  x1="413.3333333333333" x2="413.3333333333333" y1="37.5" y2="25.0" />
<line stroke="grey" stroke-width="0.5" fill="None"  x1="420.0" x2="420.0" y1="37.5" y2="25.0" />
<line stroke="grey" stroke-width="0.5" fill="None"  x1="426.6666666666667" x2="426.6666666666667" y1="37.5" y2="25.0" />
<line stroke="grey" stroke-width="0.5" fill="None"  x1="433.3333333333333" x2="433.3333333333333" y1="37.5" y2="25.0" />
<line stroke="grey" stroke-width="0.5" fill="None"  x1="440.0" x2="440.0" y1="37.5" y2="25.0" />
<line stroke="grey" stroke-width="0.5" fill="None"  x1="446.6666666666667" x2="446.6666666666667" y1="37.5" y2="25.0" />
<line stroke="grey" stroke-width="0.5" fill="None"  x1="453.3333333333333" x2="453.3333333333333" y1="37.5" y2="25.0" />
<line stroke="grey" stroke-width="0.5" fill="None"  x1="460.0" x2="460.0" y1="37.5" y2="25.0" />
<text x="466.6666666666667" y="22.0" font-family="sans-serif" font-size="7" text-anchor="middle" fill="grey">70 kPa</text>
<line stroke="grey" stroke-width="2" fill="None"  x1="466.6666666666667" x2="466.6666666666667" y1="37.5" y2="25.0" />
<line stroke="grey" stroke-width="0.5" fill="None"  x1="473.3333333333333" x2="473.3333333333333" y1="37.5" y2="25.0" />
<line stroke="grey" stroke-width="0.5" fill="None"  x1="480.0" x2="480.0" y1="37.5" y2="25.0" />
<line stroke="grey" stroke-width="0.5" fill="None"  x1="486.6666666666667" x2="486.6666666666667" y1="37.5" y2="25.0" />
<line stroke="grey" stroke-width="0.5" fill="None"  x1="493.3333333333333" x2="493.3333333333333" y1="37.5" y2="25.0" />
<line stroke="grey" stroke-width="0.5" fill="None"  x1="500.0" x2="500.0" y1="37.5" y2="25.0" />
<line stroke="grey" stroke-width="0.5" fill="None"  x1="506.6666666666667" x2="506.6666666666667" y1="37.5" y2="25.0" />
<line stroke="grey" stroke-width="0.5" fill="None"  x1="513.3333333333334" x2="513.3333333333334" y1="37.5" y2="25.0" />
<line stroke="grey" stroke-width="0.5" fill="None"  x1="520.0" x2="520.0" y1="37.5" y2="25.0" />
<line stroke="grey" stroke-width="0.5" fill="None"  x1="526.6666666666666" x2="526.6666666666666" y1="37.5" y2="25.0" />
<text x="533.3333333333334" y="22.0" font-family="sans-serif" font-size="7" text-anchor="middle" fill="grey">80 kPa</text>
<line stroke="grey" stroke-width="2" fill="None"  x1="533.3333333333334" x2="533.3333333333334" y1="37.5" y2="25.0" />
<line stroke="grey" stroke-width="0.5" fill="None"  x1="540.0" x2="540.0" y1="37.5" y2="25.0" />
<line stroke="grey" stroke-width="0.5" fill="None"  x1="546.6666666666666" x2="546.6666666666666" y1="37.5" y2="25.0" />
<line stroke="grey" stroke-width="0.5" fill="None"  x1="553.3333333333334" x2="553.3333333333334" y1="37.5" y2="25.0" />
<line stroke="grey" stroke-width="0.5" fill="None"  x1="560.0" x2="560.0" y1="37.5" y2="25.0" />
<line stroke="grey" stroke-width="0.5" fill="None"  x1="566.6666666666666" x2="566.6666666666666" y1="37.5" y2="25.0" />
<line stroke="grey" stroke-width="0.5" fill="None"  x1="573.3333333333334" x2="573.3333333333334" y1="37.5" y2="25.0" />
<line stroke="grey" stroke-width="0.5" fill="None"  x1="580.0" x2="580.0" y1="37.5" y2="25.0" />
<line stroke="grey" stroke-width="0.5" fill="None"  x1="586.6666666666666" x2="586.6666666666666" y1="37.5" y2="25.0" />
<line stroke="grey" stroke-width="0.5" fill="None"  x1="593.3333333333334" x2="593.3333333333334" y1="37.5" y2="25.0" />
<text x="600.0" y="22.0" font-family="sans-serif" font-size="7" text-anchor="end" fill="grey">90 kPa</text>
<line stroke="grey" stroke-width="2" fill="None"  x1="600.0" x2="600.0" y1="37.5" y2="25.0" />
</svg>
