<?xml version="1.0" encoding="UTF-8"?>

<svg xmlns="http://www.w3.org/2000/svg" width="600" height="75" id="svg2" version="1.1">
<line stroke="grey" stroke-width="3" fill="None"  x1="0" x2="600" y1="37.5" y2="37.5" />
<line stroke="grey" stroke-width="2" fill="None"  x1="280.0" x2="280.0" y1="37.5" y2="50.0" />
<text x="280.0" y="57.0" font-family="sans-serif" font-size="7" text-anchor="middle" fill="grey">high blood pressure</text>
<line stroke="grey" stroke-width="2" fill="None"  x1="4.0" x2="4.0" y1="37.5" y2="50.0" />
<text x="4.0" y="57.0" font-family="sans-serif" font-size="7" text-anchor="start" fill="grey">vampire's blood pressure</text>
<line stroke="grey" stroke-width="2" fill="None"  x1="360.0" x2="360.0" y1="37.5" y2="50.0" />
<text x="360.0" y="57.0" font-family="sans-serif" font-size="7" text-anchor="middle" fill="grey">critical pressure</text>
<line stroke="grey" stroke-width="2" fill="None"  x1="120.0" x2="120.0" y1="37.5" y2="50.0" />
<text x="120.0" y="57.0" font-family="sans-serif" font-size="7" text-anchor="middle" fill="grey">low blood pressure</text>
<line stroke="grey" stroke-width="2" fill="None"  x1="180.0" x2="180.0" y1="37.5" y2="50.0" />
<text x="180.0" y="57.0" font-family="sans-serif" font-size="7" text-anchor="middle" fill="grey">average</text>
<text x="0.0" y="22.0" font-family="sans-serif" font-size="7" text-anchor="start" fill="grey">0 mmHg</text>
<line stroke="grey" stroke-width="2" fill="None"  x1="0.0" x2="0.0" y1="37.5" y2="25.0" />
<line stroke="grey" stroke-width="0.5" fill="None"  x1="20.0" x2="20.0" y1="37.5" y2="25.0" />
<line stroke="grey" stroke-width="0.5" fill="None"  x1="40.0" x2="40.0" y1="37.5" y2="25.0" />
<line stroke="grey" stroke-width="0.5" fill="None"  x1="60.0" x2="60.0" y1="37.5" y2="25.0" />
<line stroke="grey" stroke-width="0.5" fill="None"  x1="80.0" x2="80.0" y1="37.5" y2="25.0" />
<line stroke="grey" stroke-width="0.5" fill="None"  x1="100.0" x2="100.0" y1="37.5" y2="25.0" />
<line stroke="grey" stroke-width="0.5" fill="None"  x1="120.0" x2="120.0" y1="37.5" y2="25.0" />
<line stroke="grey" stroke-width="0.5" fill="None"  x1="140.0" x2="140.0" y1="37.5" y2="25.0" />
<line stroke="grey" stroke-width="0.5" fill="None"  x1="160.0" x2="160.0" y1="37.5" y2="25.0" />
<line stroke="grey" stroke-width="0.5" fill="None"  x1="180.0" x2="180.0" y1="37.5" y2="25.0" />
<text x="200.0" y="22.0" font-family="sans-serif" font-size="7" text-anchor="middle" fill="grey">100 mmHg</text>
<line stroke="grey" stroke-width="2" fill="None"  x1="200.0" x2="200.0" y1="37.5" y2="25.0" />
<line stroke="grey" stroke-width="0.5" fill="None"  x1="220.0" x2="220.0" y1="37.5" y2="25.0" />
<line stroke="grey" stroke-width="0.5" fill="None"  x1="240.0" x2="240.0" y1="37.5" y2="25.0" />
<line stroke="grey" stroke-width="0.5" fill="None"  x1="260.0" x2="260.0" y1="37.5" y2="25.0" />
<line stroke="grey" stroke-width="0.5" fill="None"  x1="280.0" x2="280.0" y1="37.5" y2="25.0" />
<line stroke="grey" stroke-width="0.5" fill="None"  x1="300.0" x2="300.0" y1="37.5" y2="25.0" />
<line stroke="grey" stroke-width="0.5" fill="None"  x1="320.0" x2="320.0" y1="37.5" y2="25.0" />
<line stroke="grey" stroke-width="0.5" fill="None"  x1="340.0" x2="340.0" y1="37.5" y2="25.0" />
<line stroke="grey" stroke-width="0.5" fill="None"  x1="360.0" x2="360.0" y1="37.5" y2="25.0" />
<line stroke="grey" stroke-width="0.5" fill="None"  x1="380.0" x2="380.0" y1="37.5" y2="25.0" />
<text x="400.0" y="22.0" font-family="sans-serif" font-size="7" text-anchor="middle" fill="grey">200 mmHg</text>
<line stroke="grey" stroke-width="2" fill="None"  x1="400.0" x2="400.0" y1="37.5" y2="25.0" />
<line stroke="grey" stroke-width="0.5" fill="None"  x1="420.0" x2="420.0" y1="37.5" y2="25.0" />
<line stroke="grey" stroke-width="0.5" fill="None"  x1="440.0" x2="440.0" y1="37.5" y2="25.0" />
<line stroke="grey" stroke-width="0.5" fill="None"  x1="460.0" x2="460.0" y1="37.5" y2="25.0" />
<line stroke="grey" stroke-width="0.5" fill="None"  x1="480.0" x2="480.0" y1="37.5" y2="25.0" />
<line stroke="grey" stroke-width="0.5" fill="None"  x1="500.0" x2="500.0" y1="37.5" y2="25.0" />
<line stroke="grey" stroke-width="0.5" fill="None"  x1="520.0" x2="520.0" y1="37.5" y2="25.0" />
<line stroke="grey" stroke-width="0.5" fill="None"  x1="540.0" x2="540.0" y1="37.5" y2="25.0" />
<line stroke="grey" stroke-width="0.5" fill="None"  x1="560.0" x2="560.0" y1="37.5" y2="25.0" />
<line stroke="grey" stroke-width="0.5" fill="None"  x1="580.0" x2="580.0" y1="37.5" y2="25.0" />
<text x="600.0" y="22.0" font-family="sans-serif" font-size="7" text-anchor="end" fill="grey">300 mmHg</text>
<line stroke="grey" stroke-width="2" fill="None"  x1="600.0" x2="600.0" y1="37.5" y2="25.0" />
</svg>