<?xml version="1.0" encoding="UTF-8"?>

<svg xmlns="http://www.w3.org/2000/svg" width="600mm" height="75mm" id="svg2" version="1.1">
<line stroke="grey" stroke-width="3mm" x1="0mm" x2="600mm" y1="37.5mm" y2="37.5mm" />
<line stroke="grey" stroke-width="2mm" x1="280.0mm" x2="280.0mm" y1="37.5mm" y2="50.0mm" />
<text x="280.0mm" y="57.0mm" font-family="sans-serif" font-size="7mm" text-anchor="middle" fill="grey">high blood pressure</text><line stroke="grey" stroke-width="2mm" x1="4.0mm" x2="4.0mm" y1="37.5mm" y2="50.0mm" />
<text x="4.0mm" y="57.0mm" font-family="sans-serif" font-size="7mm" text-anchor="start" fill="grey">Zombies blood pressure</text><line stroke="grey" stroke-width="2mm" x1="360.0mm" x2="360.0mm" y1="37.5mm" y2="50.0mm" />
<text x="360.0mm" y="57.0mm" font-family="sans-serif" font-size="7mm" text-anchor="middle" fill="grey">critically high blood pressure</text><line stroke="grey" stroke-width="2mm" x1="120.0mm" x2="120.0mm" y1="37.5mm" y2="50.0mm" />
<text x="120.0mm" y="57.0mm" font-family="sans-serif" font-size="7mm" text-anchor="middle" fill="grey">low blood pressure</text><line stroke="grey" stroke-width="2mm" x1="180.0mm" x2="180.0mm" y1="37.5mm" y2="50.0mm" />
<text x="180.0mm" y="57.0mm" font-family="sans-serif" font-size="7mm" text-anchor="middle" fill="grey">average</text><text x="0.0mm" y="22.0mm" font-family="sans-serif" font-size="7mm" text-anchor="start" fill="grey">0</text><line stroke="grey" stroke-width="2mm" x1="0.0mm" x2="0.0mm" y1="37.5mm" y2="25.0mm" />
<line stroke="grey" stroke-width="0.5mm" x1="20.0mm" x2="20.0mm" y1="37.5mm" y2="25.0mm" />
<line stroke="grey" stroke-width="0.5mm" x1="40.0mm" x2="40.0mm" y1="37.5mm" y2="25.0mm" />
<line stroke="grey" stroke-width="0.5mm" x1="60.0mm" x2="60.0mm" y1="37.5mm" y2="25.0mm" />
<line stroke="grey" stroke-width="0.5mm" x1="80.0mm" x2="80.0mm" y1="37.5mm" y2="25.0mm" />
<line stroke="grey" stroke-width="0.5mm" x1="100.0mm" x2="100.0mm" y1="37.5mm" y2="25.0mm" />
<line stroke="grey" stroke-width="0.5mm" x1="120.0mm" x2="120.0mm" y1="37.5mm" y2="25.0mm" />
<line stroke="grey" stroke-width="0.5mm" x1="140.0mm" x2="140.0mm" y1="37.5mm" y2="25.0mm" />
<line stroke="grey" stroke-width="0.5mm" x1="160.0mm" x2="160.0mm" y1="37.5mm" y2="25.0mm" />
<line stroke="grey" stroke-width="0.5mm" x1="180.0mm" x2="180.0mm" y1="37.5mm" y2="25.0mm" />
<text x="200.0mm" y="22.0mm" font-family="sans-serif" font-size="7mm" text-anchor="middle" fill="grey">100</text><line stroke="grey" stroke-width="2mm" x1="200.0mm" x2="200.0mm" y1="37.5mm" y2="25.0mm" />
<line stroke="grey" stroke-width="0.5mm" x1="220.0mm" x2="220.0mm" y1="37.5mm" y2="25.0mm" />
<line stroke="grey" stroke-width="0.5mm" x1="240.0mm" x2="240.0mm" y1="37.5mm" y2="25.0mm" />
<line stroke="grey" stroke-width="0.5mm" x1="260.0mm" x2="260.0mm" y1="37.5mm" y2="25.0mm" />
<line stroke="grey" stroke-width="0.5mm" x1="280.0mm" x2="280.0mm" y1="37.5mm" y2="25.0mm" />
<line stroke="grey" stroke-width="0.5mm" x1="300.0mm" x2="300.0mm" y1="37.5mm" y2="25.0mm" />
<line stroke="grey" stroke-width="0.5mm" x1="320.0mm" x2="320.0mm" y1="37.5mm" y2="25.0mm" />
<line stroke="grey" stroke-width="0.5mm" x1="340.0mm" x2="340.0mm" y1="37.5mm" y2="25.0mm" />
<line stroke="grey" stroke-width="0.5mm" x1="360.0mm" x2="360.0mm" y1="37.5mm" y2="25.0mm" />
<line stroke="grey" stroke-width="0.5mm" x1="380.0mm" x2="380.0mm" y1="37.5mm" y2="25.0mm" />
<text x="400.0mm" y="22.0mm" font-family="sans-serif" font-size="7mm" text-anchor="middle" fill="grey">200</text><line stroke="grey" stroke-width="2mm" x1="400.0mm" x2="400.0mm" y1="37.5mm" y2="25.0mm" />
<line stroke="grey" stroke-width="0.5mm" x1="420.0mm" x2="420.0mm" y1="37.5mm" y2="25.0mm" />
<line stroke="grey" stroke-width="0.5mm" x1="440.0mm" x2="440.0mm" y1="37.5mm" y2="25.0mm" />
<line stroke="grey" stroke-width="0.5mm" x1="460.0mm" x2="460.0mm" y1="37.5mm" y2="25.0mm" />
<line stroke="grey" stroke-width="0.5mm" x1="480.0mm" x2="480.0mm" y1="37.5mm" y2="25.0mm" />
<line stroke="grey" stroke-width="0.5mm" x1="500.0mm" x2="500.0mm" y1="37.5mm" y2="25.0mm" />
<line stroke="grey" stroke-width="0.5mm" x1="520.0mm" x2="520.0mm" y1="37.5mm" y2="25.0mm" />
<line stroke="grey" stroke-width="0.5mm" x1="540.0mm" x2="540.0mm" y1="37.5mm" y2="25.0mm" />
<line stroke="grey" stroke-width="0.5mm" x1="560.0mm" x2="560.0mm" y1="37.5mm" y2="25.0mm" />
<line stroke="grey" stroke-width="0.5mm" x1="580.0mm" x2="580.0mm" y1="37.5mm" y2="25.0mm" />
</svg>