<?xml version="1.0" encoding="UTF-8"?>

<svg xmlns="http://www.w3.org/2000/svg" width="600" height="75" id="svg2" version="1.1">
<line stroke="grey" stroke-width="3" fill="None"  x1="0" x2="600" y1="37.5" y2="37.5" />
<line stroke="grey" stroke-width="2" fill="None"  x1="240.0" x2="240.0" y1="37.5" y2="50.0" />
<text x="240.0" y="57.0" font-family="sans-serif" font-size="7" text-anchor="middle" fill="grey">average</text><line stroke="grey" stroke-width="2" fill="None"  x1="320.0" x2="320.0" y1="37.5" y2="50.0" />
<text x="320.0" y="57.0" font-family="sans-serif" font-size="7" text-anchor="middle" fill="grey">heavy sweating</text><text x="0.0" y="22.0" font-family="sans-serif" font-size="7" text-anchor="start" fill="grey">0Ω</text><line stroke="grey" stroke-width="2" fill="None"  x1="0.0" x2="0.0" y1="37.5" y2="25.0" />
<line stroke="grey" stroke-width="0.5" fill="None"  x1="20.0" x2="20.0" y1="37.5" y2="25.0" />
<line stroke="grey" stroke-width="0.5" fill="None"  x1="40.0" x2="40.0" y1="37.5" y2="25.0" />
<line stroke="grey" stroke-width="0.5" fill="None"  x1="60.00000000000001" x2="60.00000000000001" y1="37.5" y2="25.0" />
<line stroke="grey" stroke-width="0.5" fill="None"  x1="80.0" x2="80.0" y1="37.5" y2="25.0" />
<line stroke="grey" stroke-width="0.5" fill="None"  x1="100.0" x2="100.0" y1="37.5" y2="25.0" />
<line stroke="grey" stroke-width="0.5" fill="None"  x1="120.0" x2="120.0" y1="37.5" y2="25.0" />
<line stroke="grey" stroke-width="0.5" fill="None"  x1="140.0" x2="140.0" y1="37.5" y2="25.0" />
<line stroke="grey" stroke-width="0.5" fill="None"  x1="159.99999999999997" x2="159.99999999999997" y1="37.5" y2="25.0" />
<line stroke="grey" stroke-width="0.5" fill="None"  x1="180.0" x2="180.0" y1="37.5" y2="25.0" />
<text x="199.99999999999997" y="22.0" font-family="sans-serif" font-size="7" text-anchor="middle" fill="grey">1Ω</text><line stroke="grey" stroke-width="2" fill="None"  x1="199.99999999999997" x2="199.99999999999997" y1="37.5" y2="25.0" />
<line stroke="grey" stroke-width="0.5" fill="None"  x1="219.99999999999997" x2="219.99999999999997" y1="37.5" y2="25.0" />
<line stroke="grey" stroke-width="0.5" fill="None"  x1="240.0" x2="240.0" y1="37.5" y2="25.0" />
<line stroke="grey" stroke-width="0.5" fill="None"  x1="260.0" x2="260.0" y1="37.5" y2="25.0" />
<line stroke="grey" stroke-width="0.5" fill="None"  x1="280.00000000000006" x2="280.00000000000006" y1="37.5" y2="25.0" />
<line stroke="grey" stroke-width="0.5" fill="None"  x1="300.00000000000006" x2="300.00000000000006" y1="37.5" y2="25.0" />
<line stroke="grey" stroke-width="0.5" fill="None"  x1="320.00000000000006" x2="320.00000000000006" y1="37.5" y2="25.0" />
<line stroke="grey" stroke-width="0.5" fill="None"  x1="340.00000000000006" x2="340.00000000000006" y1="37.5" y2="25.0" />
<line stroke="grey" stroke-width="0.5" fill="None"  x1="360.00000000000006" x2="360.00000000000006" y1="37.5" y2="25.0" />
<line stroke="grey" stroke-width="0.5" fill="None"  x1="380.00000000000017" x2="380.00000000000017" y1="37.5" y2="25.0" />
<text x="400.00000000000006" y="22.0" font-family="sans-serif" font-size="7" text-anchor="middle" fill="grey">2Ω</text><line stroke="grey" stroke-width="2" fill="None"  x1="400.00000000000006" x2="400.00000000000006" y1="37.5" y2="25.0" />
<line stroke="grey" stroke-width="0.5" fill="None"  x1="420.00000000000006" x2="420.00000000000006" y1="37.5" y2="25.0" />
<line stroke="grey" stroke-width="0.5" fill="None"  x1="440.00000000000017" x2="440.00000000000017" y1="37.5" y2="25.0" />
<line stroke="grey" stroke-width="0.5" fill="None"  x1="460.00000000000017" x2="460.00000000000017" y1="37.5" y2="25.0" />
<line stroke="grey" stroke-width="0.5" fill="None"  x1="480.00000000000017" x2="480.00000000000017" y1="37.5" y2="25.0" />
<line stroke="grey" stroke-width="0.5" fill="None"  x1="500.00000000000017" x2="500.00000000000017" y1="37.5" y2="25.0" />
<line stroke="grey" stroke-width="0.5" fill="None"  x1="520.0000000000002" x2="520.0000000000002" y1="37.5" y2="25.0" />
<line stroke="grey" stroke-width="0.5" fill="None"  x1="540.0000000000002" x2="540.0000000000002" y1="37.5" y2="25.0" />
<line stroke="grey" stroke-width="0.5" fill="None"  x1="560.0000000000002" x2="560.0000000000002" y1="37.5" y2="25.0" />
<line stroke="grey" stroke-width="0.5" fill="None"  x1="580.0000000000002" x2="580.0000000000002" y1="37.5" y2="25.0" />
</svg>