<?xml version="1.0" encoding="UTF-8"?>

<svg xmlns="http://www.w3.org/2000/svg" width="600" height="75" id="svg2" version="1.1">
<line stroke="grey" stroke-width="3" fill="None"  x1="0" x2="600" y1="37.5" y2="37.5" />
<line stroke="grey" stroke-width="2" fill="None"  x1="120.0" x2="120.0" y1="37.5" y2="50.0" />
<text x="120.0" y="57.0" font-family="sans-serif" font-size="7" text-anchor="middle" fill="grey">Deep Sleep</text>
<line stroke="grey" stroke-width="2" fill="None"  x1="240.0" x2="240.0" y1="37.5" y2="50.0" />
<text x="240.0" y="57.0" font-family="sans-serif" font-size="7" text-anchor="middle" fill="grey">Boring Math Lesson</text>
<line stroke="grey" stroke-width="2" fill="None"  x1="360.0" x2="360.0" y1="37.5" y2="50.0" />
<text x="360.0" y="57.0" font-family="sans-serif" font-size="7" text-anchor="middle" fill="grey">Office Job</text>
<line stroke="grey" stroke-width="2" fill="None"  x1="480.0" x2="480.0" y1="37.5" y2="50.0" />
<text x="480.0" y="57.0" font-family="sans-serif" font-size="7" text-anchor="middle" fill="grey">Important Meeting</text>
<line stroke="grey" stroke-width="2" fill="None"  x1="570.0" x2="570.0" y1="37.5" y2="50.0" />
<text x="570.0" y="57.0" font-family="sans-serif" font-size="7" text-anchor="middle" fill="grey">Intense Sport</text>
<text x="0.0" y="22.0" font-family="sans-serif" font-size="7" text-anchor="start" fill="grey">0%</text>
<line stroke="grey" stroke-width="2" fill="None"  x1="0.0" x2="0.0" y1="37.5" y2="25.0" />
<line stroke="grey" stroke-width="0.5" fill="None"  x1="6.0" x2="6.0" y1="37.5" y2="25.0" />
<line stroke="grey" stroke-width="0.5" fill="None"  x1="12.0" x2="12.0" y1="37.5" y2="25.0" />
<line stroke="grey" stroke-width="0.5" fill="None"  x1="18.0" x2="18.0" y1="37.5" y2="25.0" />
<line stroke="grey" stroke-width="0.5" fill="None"  x1="24.0" x2="24.0" y1="37.5" y2="25.0" />
<line stroke="grey" stroke-width="0.5" fill="None"  x1="30.0" x2="30.0" y1="37.5" y2="25.0" />
<line stroke="grey" stroke-width="0.5" fill="None"  x1="36.0" x2="36.0" y1="37.5" y2="25.0" />
<line stroke="grey" stroke-width="0.5" fill="None"  x1="42.0" x2="42.0" y1="37.5" y2="25.0" />
<line stroke="grey" stroke-width="0.5" fill="None"  x1="48.0" x2="48.0" y1="37.5" y2="25.0" />
<line stroke="grey" stroke-width="0.5" fill="None"  x1="54.0" x2="54.0" y1="37.5" y2="25.0" />
<text x="60.0" y="22.0" font-family="sans-serif" font-size="7" text-anchor="middle" fill="grey">10%</text>
<line stroke="grey" stroke-width="2" fill="None"  x1="60.0" x2="60.0" y1="37.5" y2="25.0" />
<line stroke="grey" stroke-width="0.5" fill="None"  x1="66.0" x2="66.0" y1="37.5" y2="25.0" />
<line stroke="grey" stroke-width="0.5" fill="None"  x1="72.0" x2="72.0" y1="37.5" y2="25.0" />
<line stroke="grey" stroke-width="0.5" fill="None"  x1="78.0" x2="78.0" y1="37.5" y2="25.0" />
<line stroke="grey" stroke-width="0.5" fill="None"  x1="84.0" x2="84.0" y1="37.5" y2="25.0" />
<line stroke="grey" stroke-width="0.5" fill="None"  x1="90.0" x2="90.0" y1="37.5" y2="25.0" />
<line stroke="grey" stroke-width="0.5" fill="None"  x1="96.0" x2="96.0" y1="37.5" y2="25.0" />
<line stroke="grey" stroke-width="0.5" fill="None"  x1="102.0" x2="102.0" y1="37.5" y2="25.0" />
<line stroke="grey" stroke-width="0.5" fill="None"  x1="108.0" x2="108.0" y1="37.5" y2="25.0" />
<line stroke="grey" stroke-width="0.5" fill="None"  x1="114.0" x2="114.0" y1="37.5" y2="25.0" />
<text x="120.0" y="22.0" font-family="sans-serif" font-size="7" text-anchor="middle" fill="grey">20%</text>
<line stroke="grey" stroke-width="2" fill="None"  x1="120.0" x2="120.0" y1="37.5" y2="25.0" />
<line stroke="grey" stroke-width="0.5" fill="None"  x1="126.0" x2="126.0" y1="37.5" y2="25.0" />
<line stroke="grey" stroke-width="0.5" fill="None"  x1="132.0" x2="132.0" y1="37.5" y2="25.0" />
<line stroke="grey" stroke-width="0.5" fill="None"  x1="138.0" x2="138.0" y1="37.5" y2="25.0" />
<line stroke="grey" stroke-width="0.5" fill="None"  x1="144.0" x2="144.0" y1="37.5" y2="25.0" />
<line stroke="grey" stroke-width="0.5" fill="None"  x1="150.0" x2="150.0" y1="37.5" y2="25.0" />
<line stroke="grey" stroke-width="0.5" fill="None"  x1="156.0" x2="156.0" y1="37.5" y2="25.0" />
<line stroke="grey" stroke-width="0.5" fill="None"  x1="162.0" x2="162.0" y1="37.5" y2="25.0" />
<line stroke="grey" stroke-width="0.5" fill="None"  x1="168.0" x2="168.0" y1="37.5" y2="25.0" />
<line stroke="grey" stroke-width="0.5" fill="None"  x1="174.0" x2="174.0" y1="37.5" y2="25.0" />
<text x="180.0" y="22.0" font-family="sans-serif" font-size="7" text-anchor="middle" fill="grey">30%</text>
<line stroke="grey" stroke-width="2" fill="None"  x1="180.0" x2="180.0" y1="37.5" y2="25.0" />
<line stroke="grey" stroke-width="0.5" fill="None"  x1="186.0" x2="186.0" y1="37.5" y2="25.0" />
<line stroke="grey" stroke-width="0.5" fill="None"  x1="192.0" x2="192.0" y1="37.5" y2="25.0" />
<line stroke="grey" stroke-width="0.5" fill="None"  x1="198.0" x2="198.0" y1="37.5" y2="25.0" />
<line stroke="grey" stroke-width="0.5" fill="None"  x1="204.0" x2="204.0" y1="37.5" y2="25.0" />
<line stroke="grey" stroke-width="0.5" fill="None"  x1="210.0" x2="210.0" y1="37.5" y2="25.0" />
<line stroke="grey" stroke-width="0.5" fill="None"  x1="216.0" x2="216.0" y1="37.5" y2="25.0" />
<line stroke="grey" stroke-width="0.5" fill="None"  x1="222.0" x2="222.0" y1="37.5" y2="25.0" />
<line stroke="grey" stroke-width="0.5" fill="None"  x1="228.0" x2="228.0" y1="37.5" y2="25.0" />
<line stroke="grey" stroke-width="0.5" fill="None"  x1="234.0" x2="234.0" y1="37.5" y2="25.0" />
<text x="240.0" y="22.0" font-family="sans-serif" font-size="7" text-anchor="middle" fill="grey">40%</text>
<line stroke="grey" stroke-width="2" fill="None"  x1="240.0" x2="240.0" y1="37.5" y2="25.0" />
<line stroke="grey" stroke-width="0.5" fill="None"  x1="246.0" x2="246.0" y1="37.5" y2="25.0" />
<line stroke="grey" stroke-width="0.5" fill="None"  x1="252.0" x2="252.0" y1="37.5" y2="25.0" />
<line stroke="grey" stroke-width="0.5" fill="None"  x1="258.0" x2="258.0" y1="37.5" y2="25.0" />
<line stroke="grey" stroke-width="0.5" fill="None"  x1="264.0" x2="264.0" y1="37.5" y2="25.0" />
<line stroke="grey" stroke-width="0.5" fill="None"  x1="270.0" x2="270.0" y1="37.5" y2="25.0" />
<line stroke="grey" stroke-width="0.5" fill="None"  x1="276.0" x2="276.0" y1="37.5" y2="25.0" />
<line stroke="grey" stroke-width="0.5" fill="None"  x1="282.0" x2="282.0" y1="37.5" y2="25.0" />
<line stroke="grey" stroke-width="0.5" fill="None"  x1="288.0" x2="288.0" y1="37.5" y2="25.0" />
<line stroke="grey" stroke-width="0.5" fill="None"  x1="294.0" x2="294.0" y1="37.5" y2="25.0" />
<text x="300.0" y="22.0" font-family="sans-serif" font-size="7" text-anchor="middle" fill="grey">50%</text>
<line stroke="grey" stroke-width="2" fill="None"  x1="300.0" x2="300.0" y1="37.5" y2="25.0" />
<line stroke="grey" stroke-width="0.5" fill="None"  x1="306.0" x2="306.0" y1="37.5" y2="25.0" />
<line stroke="grey" stroke-width="0.5" fill="None"  x1="312.0" x2="312.0" y1="37.5" y2="25.0" />
<line stroke="grey" stroke-width="0.5" fill="None"  x1="318.0" x2="318.0" y1="37.5" y2="25.0" />
<line stroke="grey" stroke-width="0.5" fill="None"  x1="324.0" x2="324.0" y1="37.5" y2="25.0" />
<line stroke="grey" stroke-width="0.5" fill="None"  x1="330.0" x2="330.0" y1="37.5" y2="25.0" />
<line stroke="grey" stroke-width="0.5" fill="None"  x1="336.0" x2="336.0" y1="37.5" y2="25.0" />
<line stroke="grey" stroke-width="0.5" fill="None"  x1="342.0" x2="342.0" y1="37.5" y2="25.0" />
<line stroke="grey" stroke-width="0.5" fill="None"  x1="348.0" x2="348.0" y1="37.5" y2="25.0" />
<line stroke="grey" stroke-width="0.5" fill="None"  x1="354.0" x2="354.0" y1="37.5" y2="25.0" />
<text x="360.0" y="22.0" font-family="sans-serif" font-size="7" text-anchor="middle" fill="grey">60%</text>
<line stroke="grey" stroke-width="2" fill="None"  x1="360.0" x2="360.0" y1="37.5" y2="25.0" />
<line stroke="grey" stroke-width="0.5" fill="None"  x1="366.0" x2="366.0" y1="37.5" y2="25.0" />
<line stroke="grey" stroke-width="0.5" fill="None"  x1="372.0" x2="372.0" y1="37.5" y2="25.0" />
<line stroke="grey" stroke-width="0.5" fill="None"  x1="378.0" x2="378.0" y1="37.5" y2="25.0" />
<line stroke="grey" stroke-width="0.5" fill="None"  x1="384.0" x2="384.0" y1="37.5" y2="25.0" />
<line stroke="grey" stroke-width="0.5" fill="None"  x1="390.0" x2="390.0" y1="37.5" y2="25.0" />
<line stroke="grey" stroke-width="0.5" fill="None"  x1="396.0" x2="396.0" y1="37.5" y2="25.0" />
<line stroke="grey" stroke-width="0.5" fill="None"  x1="402.0" x2="402.0" y1="37.5" y2="25.0" />
<line stroke="grey" stroke-width="0.5" fill="None"  x1="408.0" x2="408.0" y1="37.5" y2="25.0" />
<line stroke="grey" stroke-width="0.5" fill="None"  x1="414.0" x2="414.0" y1="37.5" y2="25.0" />
<text x="420.0" y="22.0" font-family="sans-serif" font-size="7" text-anchor="middle" fill="grey">70%</text>
<line stroke="grey" stroke-width="2" fill="None"  x1="420.0" x2="420.0" y1="37.5" y2="25.0" />
<line stroke="grey" stroke-width="0.5" fill="None"  x1="426.0" x2="426.0" y1="37.5" y2="25.0" />
<line stroke="grey" stroke-width="0.5" fill="None"  x1="432.0" x2="432.0" y1="37.5" y2="25.0" />
<line stroke="grey" stroke-width="0.5" fill="None"  x1="438.0" x2="438.0" y1="37.5" y2="25.0" />
<line stroke="grey" stroke-width="0.5" fill="None"  x1="444.0" x2="444.0" y1="37.5" y2="25.0" />
<line stroke="grey" stroke-width="0.5" fill="None"  x1="450.0" x2="450.0" y1="37.5" y2="25.0" />
<line stroke="grey" stroke-width="0.5" fill="None"  x1="456.0" x2="456.0" y1="37.5" y2="25.0" />
<line stroke="grey" stroke-width="0.5" fill="None"  x1="462.0" x2="462.0" y1="37.5" y2="25.0" />
<line stroke="grey" stroke-width="0.5" fill="None"  x1="468.0" x2="468.0" y1="37.5" y2="25.0" />
<line stroke="grey" stroke-width="0.5" fill="None"  x1="474.0" x2="474.0" y1="37.5" y2="25.0" />
<text x="480.0" y="22.0" font-family="sans-serif" font-size="7" text-anchor="middle" fill="grey">80%</text>
<line stroke="grey" stroke-width="2" fill="None"  x1="480.0" x2="480.0" y1="37.5" y2="25.0" />
<line stroke="grey" stroke-width="0.5" fill="None"  x1="486.0" x2="486.0" y1="37.5" y2="25.0" />
<line stroke="grey" stroke-width="0.5" fill="None"  x1="492.0" x2="492.0" y1="37.5" y2="25.0" />
<line stroke="grey" stroke-width="0.5" fill="None"  x1="498.0" x2="498.0" y1="37.5" y2="25.0" />
<line stroke="grey" stroke-width="0.5" fill="None"  x1="504.0" x2="504.0" y1="37.5" y2="25.0" />
<line stroke="grey" stroke-width="0.5" fill="None"  x1="510.0" x2="510.0" y1="37.5" y2="25.0" />
<line stroke="grey" stroke-width="0.5" fill="None"  x1="516.0" x2="516.0" y1="37.5" y2="25.0" />
<line stroke="grey" stroke-width="0.5" fill="None"  x1="522.0" x2="522.0" y1="37.5" y2="25.0" />
<line stroke="grey" stroke-width="0.5" fill="None"  x1="528.0" x2="528.0" y1="37.5" y2="25.0" />
<line stroke="grey" stroke-width="0.5" fill="None"  x1="534.0" x2="534.0" y1="37.5" y2="25.0" />
<text x="540.0" y="22.0" font-family="sans-serif" font-size="7" text-anchor="middle" fill="grey">90%</text>
<line stroke="grey" stroke-width="2" fill="None"  x1="540.0" x2="540.0" y1="37.5" y2="25.0" />
<line stroke="grey" stroke-width="0.5" fill="None"  x1="546.0" x2="546.0" y1="37.5" y2="25.0" />
<line stroke="grey" stroke-width="0.5" fill="None"  x1="552.0" x2="552.0" y1="37.5" y2="25.0" />
<line stroke="grey" stroke-width="0.5" fill="None"  x1="558.0" x2="558.0" y1="37.5" y2="25.0" />
<line stroke="grey" stroke-width="0.5" fill="None"  x1="564.0" x2="564.0" y1="37.5" y2="25.0" />
<line stroke="grey" stroke-width="0.5" fill="None"  x1="570.0" x2="570.0" y1="37.5" y2="25.0" />
<line stroke="grey" stroke-width="0.5" fill="None"  x1="576.0" x2="576.0" y1="37.5" y2="25.0" />
<line stroke="grey" stroke-width="0.5" fill="None"  x1="582.0" x2="582.0" y1="37.5" y2="25.0" />
<line stroke="grey" stroke-width="0.5" fill="None"  x1="588.0" x2="588.0" y1="37.5" y2="25.0" />
<line stroke="grey" stroke-width="0.5" fill="None"  x1="594.0" x2="594.0" y1="37.5" y2="25.0" />
<text x="600.0" y="22.0" font-family="sans-serif" font-size="7" text-anchor="end" fill="grey">100%</text>
<line stroke="grey" stroke-width="2" fill="None"  x1="600.0" x2="600.0" y1="37.5" y2="25.0" />
</svg>
