<?xml version="1.0" encoding="UTF-8"?>

<svg xmlns="http://www.w3.org/2000/svg" width="1200" height="75" id="svg2" version="1.1">
<line stroke="grey" stroke-width="3" fill="None"  x1="0" x2="1200" y1="37.5" y2="37.5" />
<line stroke="grey" stroke-width="2" fill="None"  x1="865.2923076923076" x2="865.2923076923076" y1="37.5" y2="50.0" />
<text x="865.2923076923076" y="57.0" font-family="sans-serif" font-size="7" text-anchor="middle" fill="grey">Hypothermia</text>
<line stroke="grey" stroke-width="2" fill="None"  x1="893.5384615384615" x2="893.5384615384615" y1="37.5" y2="50.0" />
<text x="893.5384615384615" y="69.5" font-family="sans-serif" font-size="7" text-anchor="middle" fill="grey">Average</text>
<line stroke="grey" stroke-width="2" fill="None"  x1="927.6923076923077" x2="927.6923076923077" y1="37.5" y2="50.0" />
<text x="927.6923076923077" y="57.0" font-family="sans-serif" font-size="7" text-anchor="middle" fill="grey">Fever</text>
<text x="0.0" y="22.0" font-family="sans-serif" font-size="7" text-anchor="start" fill="grey">0°F</text>
<line stroke="grey" stroke-width="2" fill="None"  x1="0.0" x2="0.0" y1="37.5" y2="25.0" />
<line stroke="grey" stroke-width="0.5" fill="None"  x1="9.23076923076923" x2="9.23076923076923" y1="37.5" y2="25.0" />
<line stroke="grey" stroke-width="0.5" fill="None"  x1="18.46153846153846" x2="18.46153846153846" y1="37.5" y2="25.0" />
<line stroke="grey" stroke-width="0.5" fill="None"  x1="27.692307692307693" x2="27.692307692307693" y1="37.5" y2="25.0" />
<line stroke="grey" stroke-width="0.5" fill="None"  x1="36.92307692307692" x2="36.92307692307692" y1="37.5" y2="25.0" />
<line stroke="grey" stroke-width="0.5" fill="None"  x1="46.15384615384615" x2="46.15384615384615" y1="37.5" y2="25.0" />
<line stroke="grey" stroke-width="0.5" fill="None"  x1="55.38461538461539" x2="55.38461538461539" y1="37.5" y2="25.0" />
<line stroke="grey" stroke-width="0.5" fill="None"  x1="64.61538461538461" x2="64.61538461538461" y1="37.5" y2="25.0" />
<line stroke="grey" stroke-width="0.5" fill="None"  x1="73.84615384615384" x2="73.84615384615384" y1="37.5" y2="25.0" />
<line stroke="grey" stroke-width="0.5" fill="None"  x1="83.07692307692308" x2="83.07692307692308" y1="37.5" y2="25.0" />
<text x="92.3076923076923" y="22.0" font-family="sans-serif" font-size="7" text-anchor="middle" fill="grey">10°F</text>
<line stroke="grey" stroke-width="2" fill="None"  x1="92.3076923076923" x2="92.3076923076923" y1="37.5" y2="25.0" />
<line stroke="grey" stroke-width="0.5" fill="None"  x1="101.53846153846153" x2="101.53846153846153" y1="37.5" y2="25.0" />
<line stroke="grey" stroke-width="0.5" fill="None"  x1="110.76923076923077" x2="110.76923076923077" y1="37.5" y2="25.0" />
<line stroke="grey" stroke-width="0.5" fill="None"  x1="120.0" x2="120.0" y1="37.5" y2="25.0" />
<line stroke="grey" stroke-width="0.5" fill="None"  x1="129.23076923076923" x2="129.23076923076923" y1="37.5" y2="25.0" />
<line stroke="grey" stroke-width="0.5" fill="None"  x1="138.46153846153845" x2="138.46153846153845" y1="37.5" y2="25.0" />
<line stroke="grey" stroke-width="0.5" fill="None"  x1="147.69230769230768" x2="147.69230769230768" y1="37.5" y2="25.0" />
<line stroke="grey" stroke-width="0.5" fill="None"  x1="156.92307692307693" x2="156.92307692307693" y1="37.5" y2="25.0" />
<line stroke="grey" stroke-width="0.5" fill="None"  x1="166.15384615384616" x2="166.15384615384616" y1="37.5" y2="25.0" />
<line stroke="grey" stroke-width="0.5" fill="None"  x1="175.3846153846154" x2="175.3846153846154" y1="37.5" y2="25.0" />
<text x="184.6153846153846" y="22.0" font-family="sans-serif" font-size="7" text-anchor="middle" fill="grey">20°F</text>
<line stroke="grey" stroke-width="2" fill="None"  x1="184.6153846153846" x2="184.6153846153846" y1="37.5" y2="25.0" />
<line stroke="grey" stroke-width="0.5" fill="None"  x1="193.84615384615384" x2="193.84615384615384" y1="37.5" y2="25.0" />
<line stroke="grey" stroke-width="0.5" fill="None"  x1="203.07692307692307" x2="203.07692307692307" y1="37.5" y2="25.0" />
<line stroke="grey" stroke-width="0.5" fill="None"  x1="212.30769230769232" x2="212.30769230769232" y1="37.5" y2="25.0" />
<line stroke="grey" stroke-width="0.5" fill="None"  x1="221.53846153846155" x2="221.53846153846155" y1="37.5" y2="25.0" />
<line stroke="grey" stroke-width="0.5" fill="None"  x1="230.76923076923077" x2="230.76923076923077" y1="37.5" y2="25.0" />
<line stroke="grey" stroke-width="0.5" fill="None"  x1="240.0" x2="240.0" y1="37.5" y2="25.0" />
<line stroke="grey" stroke-width="0.5" fill="None"  x1="249.23076923076923" x2="249.23076923076923" y1="37.5" y2="25.0" />
<line stroke="grey" stroke-width="0.5" fill="None"  x1="258.46153846153845" x2="258.46153846153845" y1="37.5" y2="25.0" />
<line stroke="grey" stroke-width="0.5" fill="None"  x1="267.6923076923077" x2="267.6923076923077" y1="37.5" y2="25.0" />
<text x="276.9230769230769" y="22.0" font-family="sans-serif" font-size="7" text-anchor="middle" fill="grey">30°F</text>
<line stroke="grey" stroke-width="2" fill="None"  x1="276.9230769230769" x2="276.9230769230769" y1="37.5" y2="25.0" />
<line stroke="grey" stroke-width="0.5" fill="None"  x1="286.15384615384613" x2="286.15384615384613" y1="37.5" y2="25.0" />
<line stroke="grey" stroke-width="0.5" fill="None"  x1="295.38461538461536" x2="295.38461538461536" y1="37.5" y2="25.0" />
<line stroke="grey" stroke-width="0.5" fill="None"  x1="304.61538461538464" x2="304.61538461538464" y1="37.5" y2="25.0" />
<line stroke="grey" stroke-width="0.5" fill="None"  x1="313.84615384615387" x2="313.84615384615387" y1="37.5" y2="25.0" />
<line stroke="grey" stroke-width="0.5" fill="None"  x1="323.0769230769231" x2="323.0769230769231" y1="37.5" y2="25.0" />
<line stroke="grey" stroke-width="0.5" fill="None"  x1="332.3076923076923" x2="332.3076923076923" y1="37.5" y2="25.0" />
<line stroke="grey" stroke-width="0.5" fill="None"  x1="341.53846153846155" x2="341.53846153846155" y1="37.5" y2="25.0" />
<line stroke="grey" stroke-width="0.5" fill="None"  x1="350.7692307692308" x2="350.7692307692308" y1="37.5" y2="25.0" />
<line stroke="grey" stroke-width="0.5" fill="None"  x1="360.0" x2="360.0" y1="37.5" y2="25.0" />
<text x="369.2307692307692" y="22.0" font-family="sans-serif" font-size="7" text-anchor="middle" fill="grey">40°F</text>
<line stroke="grey" stroke-width="2" fill="None"  x1="369.2307692307692" x2="369.2307692307692" y1="37.5" y2="25.0" />
<line stroke="grey" stroke-width="0.5" fill="None"  x1="378.46153846153845" x2="378.46153846153845" y1="37.5" y2="25.0" />
<line stroke="grey" stroke-width="0.5" fill="None"  x1="387.6923076923077" x2="387.6923076923077" y1="37.5" y2="25.0" />
<line stroke="grey" stroke-width="0.5" fill="None"  x1="396.9230769230769" x2="396.9230769230769" y1="37.5" y2="25.0" />
<line stroke="grey" stroke-width="0.5" fill="None"  x1="406.15384615384613" x2="406.15384615384613" y1="37.5" y2="25.0" />
<line stroke="grey" stroke-width="0.5" fill="None"  x1="415.38461538461536" x2="415.38461538461536" y1="37.5" y2="25.0" />
<line stroke="grey" stroke-width="0.5" fill="None"  x1="424.61538461538464" x2="424.61538461538464" y1="37.5" y2="25.0" />
<line stroke="grey" stroke-width="0.5" fill="None"  x1="433.84615384615387" x2="433.84615384615387" y1="37.5" y2="25.0" />
<line stroke="grey" stroke-width="0.5" fill="None"  x1="443.0769230769231" x2="443.0769230769231" y1="37.5" y2="25.0" />
<line stroke="grey" stroke-width="0.5" fill="None"  x1="452.3076923076923" x2="452.3076923076923" y1="37.5" y2="25.0" />
<text x="461.53846153846155" y="22.0" font-family="sans-serif" font-size="7" text-anchor="middle" fill="grey">50°F</text>
<line stroke="grey" stroke-width="2" fill="None"  x1="461.53846153846155" x2="461.53846153846155" y1="37.5" y2="25.0" />
<line stroke="grey" stroke-width="0.5" fill="None"  x1="470.7692307692308" x2="470.7692307692308" y1="37.5" y2="25.0" />
<line stroke="grey" stroke-width="0.5" fill="None"  x1="480.0" x2="480.0" y1="37.5" y2="25.0" />
<line stroke="grey" stroke-width="0.5" fill="None"  x1="489.2307692307692" x2="489.2307692307692" y1="37.5" y2="25.0" />
<line stroke="grey" stroke-width="0.5" fill="None"  x1="498.46153846153845" x2="498.46153846153845" y1="37.5" y2="25.0" />
<line stroke="grey" stroke-width="0.5" fill="None"  x1="507.6923076923077" x2="507.6923076923077" y1="37.5" y2="25.0" />
<line stroke="grey" stroke-width="0.5" fill="None"  x1="516.9230769230769" x2="516.9230769230769" y1="37.5" y2="25.0" />
<line stroke="grey" stroke-width="0.5" fill="None"  x1="526.1538461538462" x2="526.1538461538462" y1="37.5" y2="25.0" />
<line stroke="grey" stroke-width="0.5" fill="None"  x1="535.3846153846154" x2="535.3846153846154" y1="37.5" y2="25.0" />
<line stroke="grey" stroke-width="0.5" fill="None"  x1="544.6153846153846" x2="544.6153846153846" y1="37.5" y2="25.0" />
<text x="553.8461538461538" y="22.0" font-family="sans-serif" font-size="7" text-anchor="middle" fill="grey">60°F</text>
<line stroke="grey" stroke-width="2" fill="None"  x1="553.8461538461538" x2="553.8461538461538" y1="37.5" y2="25.0" />
<line stroke="grey" stroke-width="0.5" fill="None"  x1="563.0769230769231" x2="563.0769230769231" y1="37.5" y2="25.0" />
<line stroke="grey" stroke-width="0.5" fill="None"  x1="572.3076923076923" x2="572.3076923076923" y1="37.5" y2="25.0" />
<line stroke="grey" stroke-width="0.5" fill="None"  x1="581.5384615384615" x2="581.5384615384615" y1="37.5" y2="25.0" />
<line stroke="grey" stroke-width="0.5" fill="None"  x1="590.7692307692307" x2="590.7692307692307" y1="37.5" y2="25.0" />
<line stroke="grey" stroke-width="0.5" fill="None"  x1="600.0" x2="600.0" y1="37.5" y2="25.0" />
<line stroke="grey" stroke-width="0.5" fill="None"  x1="609.2307692307693" x2="609.2307692307693" y1="37.5" y2="25.0" />
<line stroke="grey" stroke-width="0.5" fill="None"  x1="618.4615384615385" x2="618.4615384615385" y1="37.5" y2="25.0" />
<line stroke="grey" stroke-width="0.5" fill="None"  x1="627.6923076923077" x2="627.6923076923077" y1="37.5" y2="25.0" />
<line stroke="grey" stroke-width="0.5" fill="None"  x1="636.9230769230769" x2="636.9230769230769" y1="37.5" y2="25.0" />
<text x="646.1538461538462" y="22.0" font-family="sans-serif" font-size="7" text-anchor="middle" fill="grey">70°F</text>
<line stroke="grey" stroke-width="2" fill="None"  x1="646.1538461538462" x2="646.1538461538462" y1="37.5" y2="25.0" />
<line stroke="grey" stroke-width="0.5" fill="None"  x1="655.3846153846154" x2="655.3846153846154" y1="37.5" y2="25.0" />
<line stroke="grey" stroke-width="0.5" fill="None"  x1="664.6153846153846" x2="664.6153846153846" y1="37.5" y2="25.0" />
<line stroke="grey" stroke-width="0.5" fill="None"  x1="673.8461538461538" x2="673.8461538461538" y1="37.5" y2="25.0" />
<line stroke="grey" stroke-width="0.5" fill="None"  x1="683.0769230769231" x2="683.0769230769231" y1="37.5" y2="25.0" />
<line stroke="grey" stroke-width="0.5" fill="None"  x1="692.3076923076923" x2="692.3076923076923" y1="37.5" y2="25.0" />
<line stroke="grey" stroke-width="0.5" fill="None"  x1="701.5384615384615" x2="701.5384615384615" y1="37.5" y2="25.0" />
<line stroke="grey" stroke-width="0.5" fill="None"  x1="710.7692307692307" x2="710.7692307692307" y1="37.5" y2="25.0" />
<line stroke="grey" stroke-width="0.5" fill="None"  x1="720.0" x2="720.0" y1="37.5" y2="25.0" />
<line stroke="grey" stroke-width="0.5" fill="None"  x1="729.2307692307693" x2="729.2307692307693" y1="37.5" y2="25.0" />
<text x="738.4615384615385" y="22.0" font-family="sans-serif" font-size="7" text-anchor="middle" fill="grey">80°F</text>
<line stroke="grey" stroke-width="2" fill="None"  x1="738.4615384615385" x2="738.4615384615385" y1="37.5" y2="25.0" />
<line stroke="grey" stroke-width="0.5" fill="None"  x1="747.6923076923077" x2="747.6923076923077" y1="37.5" y2="25.0" />
<line stroke="grey" stroke-width="0.5" fill="None"  x1="756.9230769230769" x2="756.9230769230769" y1="37.5" y2="25.0" />
<line stroke="grey" stroke-width="0.5" fill="None"  x1="766.1538461538462" x2="766.1538461538462" y1="37.5" y2="25.0" />
<line stroke="grey" stroke-width="0.5" fill="None"  x1="775.3846153846154" x2="775.3846153846154" y1="37.5" y2="25.0" />
<line stroke="grey" stroke-width="0.5" fill="None"  x1="784.6153846153846" x2="784.6153846153846" y1="37.5" y2="25.0" />
<line stroke="grey" stroke-width="0.5" fill="None"  x1="793.8461538461538" x2="793.8461538461538" y1="37.5" y2="25.0" />
<line stroke="grey" stroke-width="0.5" fill="None"  x1="803.0769230769231" x2="803.0769230769231" y1="37.5" y2="25.0" />
<line stroke="grey" stroke-width="0.5" fill="None"  x1="812.3076923076923" x2="812.3076923076923" y1="37.5" y2="25.0" />
<line stroke="grey" stroke-width="0.5" fill="None"  x1="821.5384615384615" x2="821.5384615384615" y1="37.5" y2="25.0" />
<text x="830.7692307692307" y="22.0" font-family="sans-serif" font-size="7" text-anchor="middle" fill="grey">90°F</text>
<line stroke="grey" stroke-width="2" fill="None"  x1="830.7692307692307" x2="830.7692307692307" y1="37.5" y2="25.0" />
<line stroke="grey" stroke-width="0.5" fill="None"  x1="840.0" x2="840.0" y1="37.5" y2="25.0" />
<line stroke="grey" stroke-width="0.5" fill="None"  x1="849.2307692307693" x2="849.2307692307693" y1="37.5" y2="25.0" />
<line stroke="grey" stroke-width="0.5" fill="None"  x1="858.4615384615385" x2="858.4615384615385" y1="37.5" y2="25.0" />
<line stroke="grey" stroke-width="0.5" fill="None"  x1="867.6923076923077" x2="867.6923076923077" y1="37.5" y2="25.0" />
<line stroke="grey" stroke-width="0.5" fill="None"  x1="876.9230769230769" x2="876.9230769230769" y1="37.5" y2="25.0" />
<line stroke="grey" stroke-width="0.5" fill="None"  x1="886.1538461538462" x2="886.1538461538462" y1="37.5" y2="25.0" />
<line stroke="grey" stroke-width="0.5" fill="None"  x1="895.3846153846154" x2="895.3846153846154" y1="37.5" y2="25.0" />
<line stroke="grey" stroke-width="0.5" fill="None"  x1="904.6153846153846" x2="904.6153846153846" y1="37.5" y2="25.0" />
<line stroke="grey" stroke-width="0.5" fill="None"  x1="913.8461538461538" x2="913.8461538461538" y1="37.5" y2="25.0" />
<text x="923.0769230769231" y="22.0" font-family="sans-serif" font-size="7" text-anchor="middle" fill="grey">100°F</text>
<line stroke="grey" stroke-width="2" fill="None"  x1="923.0769230769231" x2="923.0769230769231" y1="37.5" y2="25.0" />
<line stroke="grey" stroke-width="0.5" fill="None"  x1="932.3076923076923" x2="932.3076923076923" y1="37.5" y2="25.0" />
<line stroke="grey" stroke-width="0.5" fill="None"  x1="941.5384615384615" x2="941.5384615384615" y1="37.5" y2="25.0" />
<line stroke="grey" stroke-width="0.5" fill="None"  x1="950.7692307692307" x2="950.7692307692307" y1="37.5" y2="25.0" />
<line stroke="grey" stroke-width="0.5" fill="None"  x1="960.0" x2="960.0" y1="37.5" y2="25.0" />
<line stroke="grey" stroke-width="0.5" fill="None"  x1="969.2307692307693" x2="969.2307692307693" y1="37.5" y2="25.0" />
<line stroke="grey" stroke-width="0.5" fill="None"  x1="978.4615384615385" x2="978.4615384615385" y1="37.5" y2="25.0" />
<line stroke="grey" stroke-width="0.5" fill="None"  x1="987.6923076923077" x2="987.6923076923077" y1="37.5" y2="25.0" />
<line stroke="grey" stroke-width="0.5" fill="None"  x1="996.9230769230769" x2="996.9230769230769" y1="37.5" y2="25.0" />
<line stroke="grey" stroke-width="0.5" fill="None"  x1="1006.1538461538462" x2="1006.1538461538462" y1="37.5" y2="25.0" />
<text x="1015.3846153846154" y="22.0" font-family="sans-serif" font-size="7" text-anchor="middle" fill="grey">110°F</text>
<line stroke="grey" stroke-width="2" fill="None"  x1="1015.3846153846154" x2="1015.3846153846154" y1="37.5" y2="25.0" />
<line stroke="grey" stroke-width="0.5" fill="None"  x1="1024.6153846153845" x2="1024.6153846153845" y1="37.5" y2="25.0" />
<line stroke="grey" stroke-width="0.5" fill="None"  x1="1033.8461538461538" x2="1033.8461538461538" y1="37.5" y2="25.0" />
<line stroke="grey" stroke-width="0.5" fill="None"  x1="1043.076923076923" x2="1043.076923076923" y1="37.5" y2="25.0" />
<line stroke="grey" stroke-width="0.5" fill="None"  x1="1052.3076923076924" x2="1052.3076923076924" y1="37.5" y2="25.0" />
<line stroke="grey" stroke-width="0.5" fill="None"  x1="1061.5384615384614" x2="1061.5384615384614" y1="37.5" y2="25.0" />
<line stroke="grey" stroke-width="0.5" fill="None"  x1="1070.7692307692307" x2="1070.7692307692307" y1="37.5" y2="25.0" />
<line stroke="grey" stroke-width="0.5" fill="None"  x1="1080.0" x2="1080.0" y1="37.5" y2="25.0" />
<line stroke="grey" stroke-width="0.5" fill="None"  x1="1089.2307692307693" x2="1089.2307692307693" y1="37.5" y2="25.0" />
<line stroke="grey" stroke-width="0.5" fill="None"  x1="1098.4615384615386" x2="1098.4615384615386" y1="37.5" y2="25.0" />
<text x="1107.6923076923076" y="22.0" font-family="sans-serif" font-size="7" text-anchor="middle" fill="grey">120°F</text>
<line stroke="grey" stroke-width="2" fill="None"  x1="1107.6923076923076" x2="1107.6923076923076" y1="37.5" y2="25.0" />
<line stroke="grey" stroke-width="0.5" fill="None"  x1="1116.923076923077" x2="1116.923076923077" y1="37.5" y2="25.0" />
<line stroke="grey" stroke-width="0.5" fill="None"  x1="1126.1538461538462" x2="1126.1538461538462" y1="37.5" y2="25.0" />
<line stroke="grey" stroke-width="0.5" fill="None"  x1="1135.3846153846155" x2="1135.3846153846155" y1="37.5" y2="25.0" />
<line stroke="grey" stroke-width="0.5" fill="None"  x1="1144.6153846153845" x2="1144.6153846153845" y1="37.5" y2="25.0" />
<line stroke="grey" stroke-width="0.5" fill="None"  x1="1153.8461538461538" x2="1153.8461538461538" y1="37.5" y2="25.0" />
<line stroke="grey" stroke-width="0.5" fill="None"  x1="1163.076923076923" x2="1163.076923076923" y1="37.5" y2="25.0" />
<line stroke="grey" stroke-width="0.5" fill="None"  x1="1172.3076923076924" x2="1172.3076923076924" y1="37.5" y2="25.0" />
<line stroke="grey" stroke-width="0.5" fill="None"  x1="1181.5384615384614" x2="1181.5384615384614" y1="37.5" y2="25.0" />
<line stroke="grey" stroke-width="0.5" fill="None"  x1="1190.7692307692307" x2="1190.7692307692307" y1="37.5" y2="25.0" />
<text x="1200.0" y="22.0" font-family="sans-serif" font-size="7" text-anchor="end" fill="grey">130°F</text>
<line stroke="grey" stroke-width="2" fill="None"  x1="1200.0" x2="1200.0" y1="37.5" y2="25.0" />
</svg>
