<?xml version="1.0" encoding="UTF-8"?>

<svg xmlns="http://www.w3.org/2000/svg" width="540" height="245" id="svg2" version="1.1">
<text x="70.0" y="212" font-family="sans-serif" font-size="12" text-anchor="start" fill="grey">0 days</text>
<text x="127.14285714285714" y="212" font-family="sans-serif" font-size="12" text-anchor="start" fill="grey">1 days</text>
<text x="184.28571428571428" y="212" font-family="sans-serif" font-size="12" text-anchor="start" fill="grey">2 days</text>
<text x="241.42857142857142" y="212" font-family="sans-serif" font-size="12" text-anchor="start" fill="grey">3 days</text>
<text x="298.57142857142856" y="212" font-family="sans-serif" font-size="12" text-anchor="start" fill="grey">4 days</text>
<text x="355.7142857142857" y="212" font-family="sans-serif" font-size="12" text-anchor="start" fill="grey">5 days</text>
<text x="412.85714285714283" y="212" font-family="sans-serif" font-size="12" text-anchor="start" fill="grey">6 days</text>
<path stroke="grey" stroke-width="2" fill="None" stroke-linecap="round" stroke-linejoin="round"  d="M70.00 5.00L70.00 200.00L470.00 200.00L470.00 5.00"/>
<text x="0" y="20.0" font-family="sans-serif" font-size="12" text-anchor="start" fill="grey">200bpm</text>
<text x="0" y="40.0" font-family="sans-serif" font-size="12" text-anchor="start" fill="grey">190bpm</text>
<text x="0" y="60.0" font-family="sans-serif" font-size="12" text-anchor="start" fill="grey">180bpm</text>
<text x="0" y="80.0" font-family="sans-serif" font-size="12" text-anchor="start" fill="grey">170bpm</text>
<text x="0" y="100.0" font-family="sans-serif" font-size="12" text-anchor="start" fill="grey">160bpm</text>
<text x="0" y="120.0" font-family="sans-serif" font-size="12" text-anchor="start" fill="grey">150bpm</text>
<text x="0" y="140.0" font-family="sans-serif" font-size="12" text-anchor="start" fill="grey">140bpm</text>
<text x="0" y="160.0" font-family="sans-serif" font-size="12" text-anchor="start" fill="grey">130bpm</text>
<text x="0" y="180.0" font-family="sans-serif" font-size="12" text-anchor="start" fill="grey">120bpm</text>
<text x="0" y="200.0" font-family="sans-serif" font-size="12" text-anchor="start" fill="grey">110bpm</text>
<path stroke="#648064" stroke-width="2" fill="None"  d="M70.00 21.07L127.14 45.88L184.29 45.69L241.43 49.49L298.57 67.61L355.71 55.79L412.86 78.47L470.00 76.12"/>
<text x="540" y="22.22222222222222" font-family="sans-serif" font-size="12" text-anchor="end" fill="grey">210mmHg</text>
<text x="540" y="44.44444444444444" font-family="sans-serif" font-size="12" text-anchor="end" fill="grey">200mmHg</text>
<text x="540" y="66.66666666666667" font-family="sans-serif" font-size="12" text-anchor="end" fill="grey">190mmHg</text>
<text x="540" y="88.88888888888889" font-family="sans-serif" font-size="12" text-anchor="end" fill="grey">180mmHg</text>
<text x="540" y="111.11111111111111" font-family="sans-serif" font-size="12" text-anchor="end" fill="grey">170mmHg</text>
<text x="540" y="133.33333333333334" font-family="sans-serif" font-size="12" text-anchor="end" fill="grey">160mmHg</text>
<text x="540" y="155.55555555555554" font-family="sans-serif" font-size="12" text-anchor="end" fill="grey">150mmHg</text>
<text x="540" y="177.77777777777777" font-family="sans-serif" font-size="12" text-anchor="end" fill="grey">140mmHg</text>
<text x="540" y="200.0" font-family="sans-serif" font-size="12" text-anchor="end" fill="grey">130mmHg</text>
<path stroke="#646419" stroke-width="2" fill="None"  d="M70.00 117.89L127.14 113.67L184.29 135.21L241.43 104.13L298.57 110.90L355.71 76.38L412.86 108.77L470.00 96.12"/>
<rect stroke="0" stroke-width="0" fill="#648064"  x="0.00" y="220.00" width="25.00" height="25.00" rx="0.00" ry="0.00"></rect>
<text x="30.0" y="238.0" font-family="sans-serif" font-size="18.0" text-anchor="start" fill="grey">heart rate</text>
<rect stroke="0" stroke-width="0" fill="#646419"  x="235.00" y="220.00" width="25.00" height="25.00" rx="0.00" ry="0.00"></rect>
<text x="265.0" y="238.0" font-family="sans-serif" font-size="18.0" text-anchor="start" fill="grey">blood pressure</text>
</svg>