<?xml version="1.0" encoding="UTF-8"?>

<svg xmlns="http://www.w3.org/2000/svg" width="200" height="200" id="svg2" version="1.1">
<path stroke="grey" stroke-width="4" fill="grey"  d="M100.0 195.0L100.0 176.0L123.48529157249601 172.28029523843168L129.35661446562 190.35036904803957L155.83959896778495 176.85661446562L144.67167917422796 161.485291572496L161.485291572496 144.67167917422796L176.85661446562 155.83959896778495L190.35036904803957 129.35661446562L172.28029523843168 123.48529157249601L176.0 100.0L195.0 100.0L190.3503690480396 70.64338553438L172.28029523843168 76.514708427504L161.485291572496 55.328320825772046L176.85661446562 44.16040103221506L155.83959896778495 23.143385534380002L144.67167917422796 38.514708427504L123.48529157249601 27.719704761568337L129.35661446562 9.649630951960418L100.00000000000001 5.0L100.00000000000001 24.0L76.51470842750403 27.71970476156831L70.64338553438004 9.64963095196039L44.16040103221506 23.143385534379988L55.328320825772046 38.51470842750399L38.514708427504 55.32832082577203L23.143385534380002 44.16040103221504L9.649630951960418 70.64338553437997L27.719704761568337 76.51470842750399L24.0 99.99999999999999L5.0 99.99999999999999L9.649630951960404 129.35661446562L27.719704761568323 123.485291572496L38.51470842750399 144.67167917422796L23.143385534379988 155.83959896778492L44.160401032215034 176.85661446562L55.328320825772025 161.485291572496L76.51470842750398 172.28029523843168L70.64338553437997 190.35036904803957Z"/></svg>