<?xml version="1.0" encoding="UTF-8"?>

<svg xmlns="http://www.w3.org/2000/svg" width="200" height="200" id="svg2" version="1.1">
<path stroke="grey" stroke-width="4" fill="grey"  d="M100.00 195.00L100.00 176.00L107.94 175.58L115.80 174.34L123.49 172.28L129.36 190.35L138.64 186.79L147.50 182.27L155.84 176.86L144.67 161.49L150.85 156.48L156.48 150.85L161.49 144.67L176.86 155.84L182.27 147.50L186.79 138.64L190.35 129.36L172.28 123.49L174.34 115.80L175.58 107.94L176.00 100.00L195.00 100.00L194.48 90.07L192.92 80.25L190.35 70.64L172.28 76.51L169.43 69.09L165.82 62.00L161.49 55.33L176.86 44.16L170.60 36.43L163.57 29.40L155.84 23.14L144.67 38.51L138.00 34.18L130.91 30.57L123.49 27.72L129.36 9.65L119.75 7.08L109.93 5.52L100.00 5.00L100.00 24.00L92.06 24.42L84.20 25.66L76.51 27.72L70.64 9.65L61.36 13.21L52.50 17.73L44.16 23.14L55.33 38.51L49.15 43.52L43.52 49.15L38.51 55.33L23.14 44.16L17.73 52.50L13.21 61.36L9.65 70.64L27.72 76.51L25.66 84.20L24.42 92.06L24.00 100.00L5.00 100.00L5.52 109.93L7.08 119.75L9.65 129.36L27.72 123.49L30.57 130.91L34.18 138.00L38.51 144.67L23.14 155.84L29.40 163.57L36.43 170.60L44.16 176.86L55.33 161.49L62.00 165.82L69.09 169.43L76.51 172.28L70.64 190.35L80.25 192.92L90.07 194.48Z"/>
</svg>